<svg width="102" height="106" viewBox="0 0 102 106" fill="none" xmlns="http://www.w3.org/2000/svg">
<g filter="url(#filter0_d_411_190)">
<path fill-rule="evenodd" clip-rule="evenodd" d="M48.6948 48.4618L48.6948 51H56.5911C56.0379 50.7376 55.4285 50.4908 54.7364 50.2338C52.8102 49.4911 50.7963 48.9004 48.6948 48.4618ZM60.1271 51H67.6718V47.3053L52.5723 47.3053C53.7057 47.6608 54.802 48.0627 55.8611 48.5109C57.4891 49.1938 58.9111 50.0235 60.1271 51Z" fill="#F38B4A"/>
<mask id="path-2-outside-1_411_190" maskUnits="userSpaceOnUse" x="27.6948" y="31" width="37" height="34" fill="black">
<rect fill="white" x="27.6948" y="31" width="37" height="34"/>
<path fill-rule="evenodd" clip-rule="evenodd" d="M30.7809 33C30.7796 33.2979 30.7805 33.5941 30.7815 33.8865C30.7821 34.0732 30.7827 34.2584 30.7827 34.4416C30.7827 37.3385 31.4445 39.5916 32.7682 41.201C34.0918 42.7836 35.8882 43.9907 38.1574 44.8222C40.4501 45.6537 43.0501 46.378 45.9574 46.9949C49.0066 47.6387 51.843 48.5775 54.4666 49.8113C57.1139 51.0452 59.2531 52.6815 60.884 54.72C61.9081 55.9833 62.6611 57.808 63.0797 59.7415C63.0302 59.8574 62.9826 59.9603 62.9372 60.049C62.4912 60.9202 61.8799 61.7417 61.2014 62.4962C61.2025 62.4258 61.2031 62.3551 61.2031 62.2842C61.2031 59.6555 60.4585 57.5097 58.9694 55.8466C57.5039 54.1567 55.6012 52.829 53.2612 51.8633C50.9448 50.8709 48.5102 50.1064 45.9574 49.5699C42.672 48.8725 39.7174 48.0008 37.0937 46.9547C34.4937 45.8817 32.4373 44.3796 30.9245 42.4483C29.6111 40.7483 28.8679 38.5124 28.6948 35.7407C29.3206 34.7657 30.016 33.8521 30.7809 33Z"/>
</mask>
<path fill-rule="evenodd" clip-rule="evenodd" d="M30.7809 33C30.7796 33.2979 30.7805 33.5941 30.7815 33.8865C30.7821 34.0732 30.7827 34.2584 30.7827 34.4416C30.7827 37.3385 31.4445 39.5916 32.7682 41.201C34.0918 42.7836 35.8882 43.9907 38.1574 44.8222C40.4501 45.6537 43.0501 46.378 45.9574 46.9949C49.0066 47.6387 51.843 48.5775 54.4666 49.8113C57.1139 51.0452 59.2531 52.6815 60.884 54.72C61.9081 55.9833 62.6611 57.808 63.0797 59.7415C63.0302 59.8574 62.9826 59.9603 62.9372 60.049C62.4912 60.9202 61.8799 61.7417 61.2014 62.4962C61.2025 62.4258 61.2031 62.3551 61.2031 62.2842C61.2031 59.6555 60.4585 57.5097 58.9694 55.8466C57.5039 54.1567 55.6012 52.829 53.2612 51.8633C50.9448 50.8709 48.5102 50.1064 45.9574 49.5699C42.672 48.8725 39.7174 48.0008 37.0937 46.9547C34.4937 45.8817 32.4373 44.3796 30.9245 42.4483C29.6111 40.7483 28.8679 38.5124 28.6948 35.7407C29.3206 34.7657 30.016 33.8521 30.7809 33Z" fill="url(#paint0_linear_411_190)"/>
<path d="M30.7809 33L31.4832 33.0031L31.4914 31.1571L30.2583 32.5309L30.7809 33ZM30.7815 33.8865L31.4838 33.8842L31.4838 33.8842L30.7815 33.8865ZM32.7682 41.201L32.2258 41.6472L32.2295 41.6516L32.7682 41.201ZM38.1574 44.8222L37.9157 45.4816L37.9179 45.4824L38.1574 44.8222ZM45.9574 46.9949L45.8117 47.6819L45.8124 47.682L45.9574 46.9949ZM54.4666 49.8113L54.1678 50.4469L54.17 50.4479L54.4666 49.8113ZM60.884 54.72L60.3356 55.1588L60.3385 55.1623L60.884 54.72ZM63.0797 59.7415L63.7256 60.0173L63.8134 59.8116L63.7661 59.5929L63.0797 59.7415ZM62.9372 60.049L63.5624 60.369L63.5624 60.369L62.9372 60.049ZM61.2014 62.4962L60.4992 62.4853L60.4701 64.3598L61.7236 62.9658L61.2014 62.4962ZM58.9694 55.8466L58.4388 56.3068L58.4462 56.3151L58.9694 55.8466ZM53.2612 51.8633L52.9846 52.5089L52.9933 52.5125L53.2612 51.8633ZM45.9574 49.5699L45.8116 50.2569L45.813 50.2572L45.9574 49.5699ZM37.0937 46.9547L36.8258 47.6039L36.8336 47.607L37.0937 46.9547ZM30.9245 42.4483L30.3688 42.8777L30.3717 42.8814L30.9245 42.4483ZM28.6948 35.7407L28.1038 35.3613L27.9796 35.5549L27.9939 35.7845L28.6948 35.7407ZM30.0786 32.9969C30.0773 33.2979 30.0782 33.5968 30.0792 33.8888L31.4838 33.8842C31.4828 33.5913 31.4818 33.2979 31.4832 33.0031L30.0786 32.9969ZM30.0792 33.8888C30.0798 34.0758 30.0804 34.2598 30.0804 34.4416H31.485C31.485 34.2571 31.4844 34.0707 31.4838 33.8842L30.0792 33.8888ZM30.0804 34.4416C30.0804 37.4384 30.7649 39.8708 32.2258 41.6472L33.3106 40.7549C32.1242 39.3124 31.485 37.2386 31.485 34.4416H30.0804ZM32.2295 41.6516C33.6448 43.3437 35.5509 44.615 37.9157 45.4816L38.399 44.1628C36.2255 43.3663 34.5389 42.2235 33.3069 40.7505L32.2295 41.6516ZM37.9179 45.4824C40.247 46.3271 42.8792 47.0596 45.8117 47.6819L46.1032 46.3079C43.2211 45.6963 40.6532 44.9803 38.3968 44.162L37.9179 45.4824ZM45.8124 47.682C48.8123 48.3154 51.5967 49.2377 54.1678 50.4469L54.7655 49.1758C52.0892 47.9172 49.2008 46.9619 46.1025 46.3078L45.8124 47.682ZM54.17 50.4479C56.731 51.6416 58.7799 53.2142 60.3356 55.1588L61.4324 54.2813C59.7262 52.1487 57.4969 50.4489 54.7633 49.1748L54.17 50.4479ZM60.3385 55.1623C61.2708 56.3124 61.9891 58.0229 62.3933 59.8901L63.7661 59.5929C63.3332 57.5932 62.5455 55.6543 61.4295 54.2778L60.3385 55.1623ZM63.5624 60.369C63.617 60.2622 63.6715 60.1438 63.7256 60.0173L62.4338 59.4657C62.3889 59.5709 62.3482 59.6584 62.3121 59.7289L63.5624 60.369ZM61.7236 62.9658C62.4292 62.1812 63.0807 61.3098 63.5624 60.369L62.3121 59.7289C61.9017 60.5306 61.3306 61.3022 60.6792 62.0266L61.7236 62.9658ZM61.9036 62.5071C61.9048 62.433 61.9054 62.3587 61.9054 62.2842H60.5008C60.5008 62.3515 60.5003 62.4185 60.4992 62.4853L61.9036 62.5071ZM61.9054 62.2842C61.9054 59.5152 61.117 57.1923 59.4926 55.3781L58.4462 56.3151C59.8 57.827 60.5008 59.7959 60.5008 62.2842H61.9054ZM59.5 55.3865C57.9539 53.6037 55.9568 52.216 53.5291 51.2142L52.9933 52.5125C55.2456 53.442 57.054 54.7098 58.4389 56.3067L59.5 55.3865ZM53.5377 51.2178C51.1773 50.2065 48.6984 49.4283 46.1019 48.8827L45.813 50.2572C48.322 50.7845 50.7122 51.5353 52.9846 52.5089L53.5377 51.2178ZM46.1033 48.883C42.8497 48.1923 39.9343 47.3312 37.3538 46.3023L36.8336 47.607C39.5005 48.6703 42.4942 49.5527 45.8116 50.2569L46.1033 48.883ZM37.3616 46.3055C34.857 45.2719 32.905 43.8379 31.4774 42.0153L30.3717 42.8814C31.9695 44.9213 34.1304 46.4915 36.8258 47.6039L37.3616 46.3055ZM31.4803 42.019C30.2747 40.4584 29.5626 38.3692 29.3957 35.6969L27.9939 35.7845C28.1732 38.6556 28.9476 41.0381 30.3688 42.8777L31.4803 42.019ZM30.2583 32.5309C29.4679 33.4114 28.7497 34.355 28.1038 35.3613L29.2859 36.12C29.8915 35.1764 30.564 34.2929 31.3035 33.4691L30.2583 32.5309Z" fill="url(#paint1_linear_411_190)" mask="url(#path-2-outside-1_411_190)"/>
<path d="M45.9682 80.2175C41.5934 80.2175 37.5182 79.3785 33.7427 77.7005C29.9972 75.9925 26.7161 73.6403 23.8994 70.6438C21.1127 67.6174 18.9253 64.1266 17.3372 60.1713C15.7791 56.216 15 52.006 15 47.5413C15 42.8369 15.839 38.5071 17.517 34.5518C19.195 30.5965 21.4873 27.1655 24.3938 24.259C27.3004 21.3225 30.6114 19.0452 34.327 17.4271C38.0726 15.809 41.9979 15 46.103 15C50.7475 15 55.2122 16.0787 59.4971 18.2362C63.782 20.3936 67.5126 23.6297 70.6888 27.9446L62.3287 32.4842C60.1713 29.7874 57.6543 27.7498 54.7777 26.3715C51.9311 24.9931 49.0096 24.3039 46.0131 24.3039C43.1066 24.3039 40.3499 24.9032 37.743 26.1018C35.1361 27.2704 32.8288 28.9185 30.8212 31.0459C28.8136 33.1434 27.2255 35.6155 26.0569 38.4621C24.9182 41.2788 24.3489 44.3501 24.3489 47.6762C24.3489 50.8823 24.9032 53.8938 26.0119 56.7104C27.1506 59.5271 28.7087 61.9991 30.6864 64.1266C32.694 66.2241 35.0012 67.8721 37.6081 69.0707C40.245 70.2693 43.0616 70.8686 46.0581 70.8686C48.2754 70.8686 50.4029 70.509 52.4405 69.7899C54.4781 69.0707 56.3658 68.0519 58.1038 66.7335C59.8717 65.3851 62.7102 63.1358 64.0759 60.4382C65.2137 58.1908 67.3206 47.3053 66.6183 47.3053H76.8015C76.8615 51.8 76.1273 56.1711 74.5093 60.1264C72.9211 64.0817 70.7038 67.5725 67.8572 70.5989C65.0405 73.5953 61.7594 75.9475 58.0139 77.6555C54.2683 79.3635 50.2531 80.2175 45.9682 80.2175Z" fill="url(#paint2_linear_411_190)"/>
</g>
<defs>
<filter id="filter0_d_411_190" x="0" y="0" width="101.805" height="105.217" filterUnits="userSpaceOnUse" color-interpolation-filters="sRGB">
<feFlood flood-opacity="0" result="BackgroundImageFix"/>
<feColorMatrix in="SourceAlpha" type="matrix" values="0 0 0 0 0 0 0 0 0 0 0 0 0 0 0 0 0 0 127 0" result="hardAlpha"/>
<feOffset dx="5" dy="5"/>
<feGaussianBlur stdDeviation="10"/>
<feComposite in2="hardAlpha" operator="out"/>
<feColorMatrix type="matrix" values="0 0 0 0 0 0 0 0 0 0 0 0 0 0 0 0 0 0 0.15 0"/>
<feBlend mode="normal" in2="BackgroundImageFix" result="effect1_dropShadow_411_190"/>
<feBlend mode="normal" in="SourceGraphic" in2="effect1_dropShadow_411_190" result="shape"/>
</filter>
<linearGradient id="paint0_linear_411_190" x1="45.8873" y1="33" x2="45.8873" y2="62.4962" gradientUnits="userSpaceOnUse">
<stop stop-color="#F16529"/>
<stop offset="1" stop-color="#F4A460"/>
</linearGradient>
<linearGradient id="paint1_linear_411_190" x1="45.8873" y1="33" x2="45.8873" y2="62.4962" gradientUnits="userSpaceOnUse">
<stop stop-color="#F16529"/>
<stop offset="1" stop-color="#F4A460"/>
</linearGradient>
<linearGradient id="paint2_linear_411_190" x1="45.9025" y1="15" x2="45.9025" y2="80.2175" gradientUnits="userSpaceOnUse">
<stop stop-color="#F16529"/>
<stop offset="1" stop-color="#F4A460"/>
</linearGradient>
</defs>
</svg>
