<svg width="53" height="53" viewBox="0 0 53 53" fill="none" xmlns="http://www.w3.org/2000/svg">
<g filter="url(#filter0_d_434_545)">
<path fill-rule="evenodd" clip-rule="evenodd" d="M26.7511 25.625H29.6262C29.3716 25.5106 29.0931 25.4014 28.7811 25.288C27.7006 24.8806 26.5653 24.5665 25.375 24.3456L25.375 25.1896C25.846 25.3197 26.3047 25.4649 26.7511 25.625ZM35.25 25.625H31.4357C30.8367 25.1627 30.1399 24.7686 29.3453 24.4427C28.8381 24.2327 28.3138 24.0435 27.7726 23.875H35.25V25.625Z" fill="#F38B4A"/>
<mask id="path-2-outside-1_434_545" maskUnits="userSpaceOnUse" x="14.0903" y="15.8323" width="20" height="17" fill="black">
<rect fill="white" x="14.0903" y="15.8323" width="20" height="17"/>
<path fill-rule="evenodd" clip-rule="evenodd" d="M16.1704 16.8323C16.1697 16.9783 16.1702 17.1235 16.1707 17.2669C16.171 17.3585 16.1713 17.4494 16.1713 17.5392C16.1713 18.9606 16.514 20.0662 17.1993 20.8559C17.8847 21.6324 18.8147 22.2246 19.9896 22.6326C21.1767 23.0406 22.5229 23.396 24.0282 23.6987C25.6069 24.0146 27.0754 24.4752 28.4339 25.0806C29.8045 25.6861 30.9121 26.4889 31.7565 27.4892C32.2869 28.1091 32.6768 29.0047 32.8935 29.9535C32.8679 30.0102 32.8433 30.0606 32.8199 30.104C32.5889 30.5316 32.2723 30.9348 31.9209 31.3051C31.9214 31.2704 31.9217 31.2356 31.9217 31.2007C31.9217 29.9109 31.5362 28.8579 30.7652 28.0419C30.0065 27.2128 29.0213 26.5613 27.8097 26.0875C26.6104 25.6005 25.3499 25.2254 24.0282 24.9622C22.3271 24.62 20.7973 24.1923 19.4389 23.679C18.0927 23.1525 17.028 22.4155 16.2448 21.4679C15.5648 20.6338 15.18 19.5369 15.0903 18.1771C15.4143 17.6987 15.7743 17.2504 16.1704 16.8323Z"/>
</mask>
<path fill-rule="evenodd" clip-rule="evenodd" d="M16.1704 16.8323C16.1697 16.9783 16.1702 17.1235 16.1707 17.2669C16.171 17.3585 16.1713 17.4494 16.1713 17.5392C16.1713 18.9606 16.514 20.0662 17.1993 20.8559C17.8847 21.6324 18.8147 22.2246 19.9896 22.6326C21.1767 23.0406 22.5229 23.396 24.0282 23.6987C25.6069 24.0146 27.0754 24.4752 28.4339 25.0806C29.8045 25.6861 30.9121 26.4889 31.7565 27.4892C32.2869 28.1091 32.6768 29.0047 32.8935 29.9535C32.8679 30.0102 32.8433 30.0606 32.8199 30.104C32.5889 30.5316 32.2723 30.9348 31.9209 31.3051C31.9214 31.2704 31.9217 31.2356 31.9217 31.2007C31.9217 29.9109 31.5362 28.8579 30.7652 28.0419C30.0065 27.2128 29.0213 26.5613 27.8097 26.0875C26.6104 25.6005 25.3499 25.2254 24.0282 24.9622C22.3271 24.62 20.7973 24.1923 19.4389 23.679C18.0927 23.1525 17.028 22.4155 16.2448 21.4679C15.5648 20.6338 15.18 19.5369 15.0903 18.1771C15.4143 17.6987 15.7743 17.2504 16.1704 16.8323Z" fill="url(#paint0_linear_434_545)"/>
<path d="M16.1704 16.8323L16.5161 16.8339L16.5202 15.9601L15.9194 16.5945L16.1704 16.8323ZM16.1707 17.2669L15.8249 17.2681L16.1707 17.2669ZM17.1993 20.8559L16.9382 21.0825L16.9401 21.0846L17.1993 20.8559ZM19.9896 22.6326L19.8762 22.9593L19.8772 22.9596L19.9896 22.6326ZM24.0282 23.6987L23.96 24.0377L23.9603 24.0377L24.0282 23.6987ZM28.4339 25.0806L28.2931 25.3965L28.2942 25.3969L28.4339 25.0806ZM31.7565 27.4892L31.4923 27.7122L31.4938 27.7139L31.7565 27.4892ZM32.8935 29.9535L33.2087 30.0956L33.2564 29.9897L33.2305 29.8765L32.8935 29.9535ZM32.8199 30.104L33.1241 30.2683L33.1241 30.2683L32.8199 30.104ZM31.9209 31.3051L31.5752 31.2994L31.5606 32.187L32.1717 31.5431L31.9209 31.3051ZM30.7652 28.0419L30.5101 28.2754L30.5139 28.2794L30.7652 28.0419ZM27.8097 26.0875L27.6796 26.4079L27.6838 26.4095L27.8097 26.0875ZM24.0282 24.9622L23.96 25.3012L23.9606 25.3013L24.0282 24.9622ZM19.4389 23.679L19.313 24.001L19.3167 24.0024L19.4389 23.679ZM16.2448 21.4679L15.9768 21.6863L15.9783 21.6881L16.2448 21.4679ZM15.0903 18.1771L14.8041 17.9832L14.7375 18.0815L14.7453 18.1999L15.0903 18.1771ZM15.8246 16.8306C15.8239 16.9783 15.8245 17.1249 15.8249 17.2681L16.5164 17.2657C16.5159 17.1221 16.5154 16.9783 16.5161 16.8339L15.8246 16.8306ZM15.8249 17.2681C15.8253 17.3598 15.8256 17.4501 15.8256 17.5392H16.5171C16.5171 17.4487 16.5167 17.3572 16.5164 17.2657L15.8249 17.2681ZM15.8256 17.5392C15.8256 19.0138 16.1814 20.2104 16.9382 21.0825L17.4604 20.6293C16.8466 19.922 16.5171 18.9074 16.5171 17.5392H15.8256ZM16.9401 21.0846C17.672 21.9139 18.6564 22.5356 19.8762 22.9593L20.103 22.306C18.9731 21.9136 18.0973 21.3508 17.4585 20.6271L16.9401 21.0846ZM19.8772 22.9596C21.0815 23.3735 22.4429 23.7326 23.96 24.0377L24.0963 23.3598C22.6029 23.0594 21.2719 22.7078 20.102 22.3057L19.8772 22.9596ZM23.9603 24.0377C25.516 24.349 26.9599 24.8023 28.2931 25.3964L28.5746 24.7649C27.191 24.1482 25.6978 23.6802 24.096 23.3597L23.9603 24.0377ZM28.2942 25.3969C29.6238 25.9842 30.6864 26.7575 31.4923 27.7122L32.0207 27.2661C31.1378 26.2203 29.9853 25.3879 28.5736 24.7644L28.2942 25.3969ZM31.4938 27.7139C31.9765 28.2782 32.3476 29.1164 32.5564 30.0305L33.2305 29.8765C33.0059 28.8929 32.5972 27.94 32.0192 27.2644L31.4938 27.7139ZM33.1241 30.2683C33.1524 30.2158 33.1807 30.1577 33.2087 30.0956L32.5783 29.8114C32.5551 29.8627 32.5342 29.9054 32.5157 29.9397L33.1241 30.2683ZM32.1717 31.5431C32.5367 31.1584 32.8743 30.7307 33.1241 30.2683L32.5157 29.9397C32.3035 30.3325 32.0078 30.7112 31.6701 31.0671L32.1717 31.5431ZM32.2666 31.3107C32.2672 31.2742 32.2675 31.2375 32.2675 31.2007H31.576C31.576 31.2337 31.5757 31.2666 31.5752 31.2994L32.2666 31.3107ZM32.2675 31.2007C32.2675 29.8367 31.8572 28.6943 31.0165 27.8045L30.5139 28.2794C31.2152 29.0216 31.576 29.985 31.576 31.2007H32.2675ZM31.0203 27.8085C30.2206 26.9346 29.1887 26.2555 27.9357 25.7655L27.6838 26.4095C28.8539 26.8671 29.7923 27.4909 30.5102 28.2754L31.0203 27.8085ZM27.9398 25.7671C26.7194 25.2716 25.4379 24.8904 24.0957 24.6231L23.9606 25.3013C25.2618 25.5604 26.5013 25.9294 27.6797 26.4078L27.9398 25.7671ZM24.0964 24.6232C22.4102 24.2841 20.899 23.8611 19.5611 23.3555L19.3167 24.0024C20.6957 24.5235 22.2439 24.9559 23.96 25.3012L24.0964 24.6232ZM19.5648 23.357C18.2637 22.8482 17.2509 22.1425 16.5112 21.2476L15.9783 21.6881C16.805 22.6884 17.9217 23.4569 19.313 24.001L19.5648 23.357ZM16.5127 21.2494C15.889 20.4842 15.5215 19.4616 15.4353 18.1544L14.7453 18.1999C14.8385 19.6121 15.2407 20.7834 15.9768 21.6863L16.5127 21.2494ZM15.9194 16.5945C15.5103 17.0263 15.1385 17.4893 14.8041 17.9832L15.3766 18.371C15.6901 17.9081 16.0383 17.4745 16.4214 17.07L15.9194 16.5945Z" fill="url(#paint1_linear_434_545)" mask="url(#path-2-outside-1_434_545)"/>
<path d="M24.034 40C21.7689 40 19.659 39.5883 17.7042 38.765C15.7649 37.9269 14.0661 36.7728 12.6077 35.3025C11.1649 33.8176 10.0324 32.1048 9.21012 30.164C8.40337 28.2233 8 26.1576 8 23.9669C8 21.6586 8.4344 19.5341 9.3032 17.5934C10.172 15.6527 11.3588 13.9692 12.8637 12.5431C14.3686 11.1022 16.083 9.98484 18.0067 9.1909C19.946 8.39697 21.9784 8 24.1038 8C26.5086 8 28.8202 8.52929 31.0387 9.58787C33.2573 10.6465 35.1888 12.2343 36.8333 14.3515L32.5048 16.5789C31.3878 15.2557 30.0846 14.2559 28.5952 13.5796C27.1214 12.9033 25.6087 12.5651 24.0573 12.5651C22.5524 12.5651 21.1251 12.8592 19.7754 13.4473C18.4256 14.0207 17.231 14.8293 16.1916 15.8732C15.1521 16.9024 14.3298 18.1153 13.7248 19.5121C13.1352 20.8941 12.8405 22.4011 12.8405 24.0331C12.8405 25.6062 13.1275 27.0839 13.7015 28.4659C14.291 29.8479 15.0978 31.0609 16.1217 32.1048C17.1612 33.1339 18.3558 33.9426 19.7055 34.5307C21.0708 35.1188 22.5291 35.4128 24.0806 35.4128C25.2286 35.4128 26.3301 35.2364 27.3851 34.8835C28.4401 34.5307 29.4175 34.0308 30.3173 33.3839C31.2327 32.7223 32.7023 31.6186 33.4095 30.295C33.9986 29.1923 35.0894 23.8511 34.7258 23.8511H39.9982C40.0293 26.0565 39.6492 28.2012 38.8114 30.142C37.9891 32.0827 36.8411 33.7955 35.3672 35.2805C33.9089 36.7507 32.2101 37.9049 30.2708 38.7429C28.3315 39.581 26.2526 40 24.034 40Z" fill="url(#paint2_linear_434_545)"/>
</g>
<defs>
<filter id="filter0_d_434_545" x="0.615384" y="0.615384" width="51.6923" height="51.6923" filterUnits="userSpaceOnUse" color-interpolation-filters="sRGB">
<feFlood flood-opacity="0" result="BackgroundImageFix"/>
<feColorMatrix in="SourceAlpha" type="matrix" values="0 0 0 0 0 0 0 0 0 0 0 0 0 0 0 0 0 0 127 0" result="hardAlpha"/>
<feOffset dx="2.46154" dy="2.46154"/>
<feGaussianBlur stdDeviation="4.92308"/>
<feComposite in2="hardAlpha" operator="out"/>
<feColorMatrix type="matrix" values="0 0 0 0 0 0 0 0 0 0 0 0 0 0 0 0 0 0 0.15 0"/>
<feBlend mode="normal" in2="BackgroundImageFix" result="effect1_dropShadow_434_545"/>
<feBlend mode="normal" in="SourceGraphic" in2="effect1_dropShadow_434_545" result="shape"/>
</filter>
<linearGradient id="paint0_linear_434_545" x1="23.9919" y1="16.8323" x2="23.9919" y2="31.3051" gradientUnits="userSpaceOnUse">
<stop stop-color="#F16529"/>
<stop offset="1" stop-color="#F4A460"/>
</linearGradient>
<linearGradient id="paint1_linear_434_545" x1="23.9919" y1="16.8323" x2="23.9919" y2="31.3051" gradientUnits="userSpaceOnUse">
<stop stop-color="#F16529"/>
<stop offset="1" stop-color="#F4A460"/>
</linearGradient>
<linearGradient id="paint2_linear_434_545" x1="24" y1="8" x2="24" y2="40" gradientUnits="userSpaceOnUse">
<stop stop-color="#F16529"/>
<stop offset="1" stop-color="#F4A460"/>
</linearGradient>
</defs>
</svg>
