<svg width="81" height="27" viewBox="0 0 81 27" fill="none" xmlns="http://www.w3.org/2000/svg">
<path d="M8.03151 16.8507H3.53904L2.79568 19H0.42016L4.47632 7.70417H7.11039L11.1666 19H8.77487L8.03151 16.8507ZM7.41743 15.0408L5.78527 10.3221L4.15312 15.0408H7.41743ZM12.1009 14.4914C12.1009 13.5864 12.2787 12.7838 12.6342 12.0835C13.0005 11.3833 13.4961 10.8446 14.1209 10.4675C14.7458 10.0905 15.4407 9.90193 16.2056 9.90193C16.7873 9.90193 17.3421 10.0312 17.87 10.2898C18.3979 10.5376 18.8181 10.8715 19.1305 11.2917V7.04161H21.4252V19H19.1305V17.6749C18.8504 18.1166 18.4572 18.4721 17.9508 18.7414C17.4445 19.0108 16.8573 19.1454 16.1894 19.1454C15.4353 19.1454 14.7458 18.9515 14.1209 18.5637C13.4961 18.1758 13.0005 17.6318 12.6342 16.9315C12.2787 16.2205 12.1009 15.4071 12.1009 14.4914ZM19.1467 14.5237C19.1467 13.9742 19.0389 13.5056 18.8235 13.1178C18.608 12.7192 18.3171 12.4175 17.9508 12.2128C17.5845 11.9973 17.1913 11.8896 16.7712 11.8896C16.351 11.8896 15.9632 11.992 15.6076 12.1966C15.2521 12.4013 14.9612 12.703 14.735 13.1016C14.5195 13.4894 14.4118 13.9527 14.4118 14.4914C14.4118 15.03 14.5195 15.5041 14.735 15.9134C14.9612 16.3121 15.2521 16.6191 15.6076 16.8346C15.9739 17.05 16.3618 17.1578 16.7712 17.1578C17.1913 17.1578 17.5845 17.0554 17.9508 16.8507C18.3171 16.6353 18.608 16.3336 18.8235 15.9458C19.0389 15.5471 19.1467 15.0731 19.1467 14.5237ZM27.6102 19.1454C26.7484 19.1454 25.9727 18.9569 25.2832 18.5798C24.5937 18.192 24.0496 17.6479 23.651 16.9477C23.2632 16.2474 23.0693 15.4394 23.0693 14.5237C23.0693 13.608 23.2686 12.8 23.6672 12.0997C24.0766 11.3994 24.6314 10.8608 25.3317 10.4837C26.0319 10.0958 26.813 9.90193 27.6749 9.90193C28.5367 9.90193 29.3178 10.0958 30.0181 10.4837C30.7183 10.8608 31.2678 11.3994 31.6664 12.0997C32.0758 12.8 32.2805 13.608 32.2805 14.5237C32.2805 15.4394 32.0704 16.2474 31.6502 16.9477C31.2408 17.6479 30.6806 18.192 29.9696 18.5798C29.2693 18.9569 28.4829 19.1454 27.6102 19.1454ZM27.6102 17.1739C28.0196 17.1739 28.4021 17.077 28.7576 16.883C29.1239 16.6783 29.4147 16.3767 29.6302 15.9781C29.8457 15.5795 29.9534 15.0947 29.9534 14.5237C29.9534 13.6726 29.7272 13.0208 29.2747 12.5683C28.833 12.1051 28.2889 11.8734 27.6425 11.8734C26.9961 11.8734 26.4521 12.1051 26.0104 12.5683C25.5794 13.0208 25.364 13.6726 25.364 14.5237C25.364 15.3748 25.5741 16.0319 25.9942 16.4952C26.4252 16.9477 26.9638 17.1739 27.6102 17.1739ZM36.2024 11.3563C36.4933 10.9254 36.8919 10.5753 37.3982 10.3059C37.9154 10.0366 38.5025 9.90193 39.1597 9.90193C39.9246 9.90193 40.6141 10.0905 41.2282 10.4675C41.853 10.8446 42.3432 11.3833 42.6987 12.0835C43.065 12.773 43.2482 13.5756 43.2482 14.4914C43.2482 15.4071 43.065 16.2205 42.6987 16.9315C42.3432 17.6318 41.853 18.1758 41.2282 18.5637C40.6141 18.9515 39.9246 19.1454 39.1597 19.1454C38.4917 19.1454 37.9046 19.0162 37.3982 18.7576C36.9027 18.4883 36.5041 18.1435 36.2024 17.7234V19H33.94V7.04161H36.2024V11.3563ZM40.9373 14.4914C40.9373 13.9527 40.8242 13.4894 40.5979 13.1016C40.3825 12.703 40.0916 12.4013 39.7253 12.1966C39.3698 11.992 38.9819 11.8896 38.5618 11.8896C38.1524 11.8896 37.7645 11.9973 37.3982 12.2128C37.0427 12.4175 36.7518 12.7192 36.5256 13.1178C36.3101 13.5164 36.2024 13.985 36.2024 14.5237C36.2024 15.0624 36.3101 15.531 36.5256 15.9296C36.7518 16.3282 37.0427 16.6353 37.3982 16.8507C37.7645 17.0554 38.1524 17.1578 38.5618 17.1578C38.9819 17.1578 39.3698 17.05 39.7253 16.8346C40.0916 16.6191 40.3825 16.3121 40.5979 15.9134C40.8242 15.5148 40.9373 15.0408 40.9373 14.4914ZM53.2146 14.3298C53.2146 14.653 53.193 14.9438 53.1499 15.2024H46.6051C46.659 15.8488 46.8852 16.3551 47.2839 16.7214C47.6825 17.0877 48.1727 17.2709 48.7544 17.2709C49.5947 17.2709 50.1927 16.91 50.5482 16.1882H52.9883C52.7298 17.05 52.2342 17.7611 51.5016 18.3213C50.769 18.8707 49.8695 19.1454 48.8029 19.1454C47.941 19.1454 47.1654 18.9569 46.4759 18.5798C45.7971 18.192 45.2639 17.6479 44.876 16.9477C44.499 16.2474 44.3104 15.4394 44.3104 14.5237C44.3104 13.5972 44.499 12.7838 44.876 12.0835C45.2531 11.3833 45.781 10.8446 46.4597 10.4675C47.1384 10.0905 47.9195 9.90193 48.8029 9.90193C49.654 9.90193 50.4135 10.0851 51.0815 10.4514C51.7602 10.8177 52.2827 11.3402 52.649 12.0189C53.026 12.6868 53.2146 13.4571 53.2146 14.3298ZM50.8714 13.6834C50.8606 13.1016 50.6505 12.6384 50.2411 12.2936C49.8318 11.9381 49.3308 11.7603 48.7383 11.7603C48.178 11.7603 47.704 11.9327 47.3162 12.2774C46.9391 12.6114 46.7075 13.0801 46.6213 13.6834H50.8714Z" fill="#393737"/>
<rect x="57.375" y="3.375" width="20.25" height="20.25" rx="8" fill="#470137"/>
<path fill-rule="evenodd" clip-rule="evenodd" d="M71.8673 18.3395C71.2502 18.3479 70.6331 18.2224 70.0743 17.9631C69.5489 17.7205 69.1153 17.319 68.8151 16.8255C68.5065 16.3152 68.3564 15.6795 68.3564 14.9183C68.3481 14.2993 68.5065 13.6887 68.8151 13.1533C69.132 12.6096 69.5906 12.1579 70.141 11.8568C70.7248 11.5306 71.4253 11.3716 72.2509 11.3716C72.2926 11.3716 72.351 11.3716 72.426 11.38C72.4663 11.3845 72.5091 11.3866 72.5555 11.3888C72.5955 11.3908 72.6382 11.3929 72.6845 11.3967V8.75347C72.6845 8.69492 72.7096 8.66146 72.7679 8.66146H74.4608C74.5025 8.65309 74.5359 8.68655 74.5442 8.72001V16.7C74.5442 16.8367 74.5511 16.9873 74.5586 17.1516L74.5609 17.2019C74.575 17.3505 74.5832 17.493 74.5904 17.6195L74.5943 17.687C74.5943 17.7456 74.5692 17.7958 74.5109 17.8209C74.0772 18.0049 73.6186 18.1387 73.1515 18.2224C72.7262 18.2977 72.3009 18.3395 71.8673 18.3395ZM72.6845 16.6665V12.986C72.6095 12.9693 72.5344 12.9526 72.4594 12.9442C72.3677 12.9359 72.2759 12.9275 72.1842 12.9275C71.8589 12.9275 71.5337 12.9944 71.2418 13.145C70.9583 13.2872 70.7164 13.4963 70.533 13.764C70.3495 14.0316 70.2578 14.3913 70.2578 14.8263C70.2494 15.1191 70.2995 15.4118 70.3996 15.6879C70.4829 15.9137 70.608 16.1145 70.7748 16.2818C70.9333 16.4323 71.1251 16.5494 71.3419 16.6163C71.5671 16.6916 71.8006 16.7251 72.0341 16.7251C72.1592 16.7251 72.2759 16.7167 72.3843 16.7084C72.4927 16.7167 72.5845 16.7 72.6845 16.6665Z" fill="#FF61F6"/>
<path d="M65.5127 13.6552L68.0146 9.51467C68.0312 9.49794 68.0479 9.46448 68.0396 9.45611C68.0312 9.41429 67.9895 9.38919 67.9478 9.39756H66.1882C66.1465 9.38919 66.1132 9.39756 66.0798 9.41429C66.0548 9.43102 66.0381 9.46448 66.0298 9.49794C65.9549 9.6379 65.88 9.78065 65.8046 9.92448C65.6952 10.1331 65.5846 10.344 65.471 10.5519C65.2792 10.9032 65.0874 11.2545 64.904 11.6059C64.7205 11.9572 64.537 12.3169 64.3619 12.6849H64.3452C64.1701 12.3252 63.9866 11.9739 63.7865 11.6226C63.6159 11.3351 63.4564 11.0475 63.2944 10.7554C63.2585 10.6906 63.2224 10.6256 63.186 10.5603C62.9942 10.2006 62.8108 9.84089 62.6523 9.48121C62.6273 9.44775 62.6023 9.42265 62.5689 9.40592C62.5356 9.39756 62.4939 9.38919 62.4522 9.38919H60.5591C60.5258 9.38919 60.4924 9.39756 60.4757 9.42265C60.4591 9.43938 60.4674 9.47284 60.4924 9.5063L63.0193 13.7974L60.4257 18.0635C60.409 18.0885 60.4007 18.122 60.409 18.1555C60.409 18.1871 60.4233 18.1852 60.4448 18.1825C60.4516 18.1816 60.4593 18.1806 60.4674 18.1806H62.3021C62.3938 18.1806 62.4605 18.1722 62.4939 18.0885C62.6217 17.8599 62.7496 17.6239 62.8775 17.3878C62.9414 17.2697 63.0054 17.1517 63.0693 17.0346C63.2528 16.6833 63.4446 16.3236 63.6364 15.9639C63.8282 15.6042 64.02 15.2445 64.1951 14.8848H64.2118C64.4119 15.2529 64.6121 15.6126 64.8122 15.9723C65.0124 16.3319 65.2042 16.6833 65.3793 17.0262C65.4669 17.2019 65.5565 17.3755 65.6462 17.549C65.7358 17.7226 65.8255 17.8962 65.913 18.0718C65.9714 18.1555 66.0631 18.1638 66.1966 18.1638H68.1063C68.1256 18.1606 68.1425 18.1624 68.1563 18.1638C68.1784 18.1661 68.1929 18.1676 68.198 18.1471C68.2064 18.1136 68.198 18.0802 68.1813 18.0467L65.5127 13.6552Z" fill="#FF61F6"/>
</svg>
