<svg width="107" height="27" viewBox="0 0 107 27" fill="none" xmlns="http://www.w3.org/2000/svg">
<path d="M33.5144 13.2147C34.15 13.3332 34.6725 13.651 35.0819 14.1682C35.4913 14.6853 35.696 15.2778 35.696 15.9458C35.696 16.5491 35.5452 17.0823 35.2435 17.5456C34.9526 17.9981 34.5271 18.3536 33.9669 18.6122C33.4067 18.8707 32.7441 19 31.9792 19H27.115V7.72033H31.7691C32.534 7.72033 33.1912 7.84422 33.7406 8.09201C34.3008 8.3398 34.721 8.68454 35.0011 9.12625C35.292 9.56796 35.4374 10.0689 35.4374 10.6291C35.4374 11.2863 35.2597 11.8357 34.9042 12.2774C34.5594 12.7192 34.0962 13.0316 33.5144 13.2147ZM29.3774 12.3744H31.4459C31.9846 12.3744 32.3994 12.2559 32.6902 12.0189C32.9811 11.7711 33.1266 11.421 33.1266 10.9685C33.1266 10.516 32.9811 10.1659 32.6902 9.91809C32.3994 9.6703 31.9846 9.54641 31.4459 9.54641H29.3774V12.3744ZM31.656 17.1578C32.2054 17.1578 32.631 17.0285 32.9326 16.7699C33.2451 16.5114 33.4013 16.1451 33.4013 15.671C33.4013 15.1862 33.2397 14.8092 32.9165 14.5398C32.5933 14.2597 32.157 14.1197 31.6075 14.1197H29.3774V17.1578H31.656ZM41.4744 19.1454C40.6126 19.1454 39.8369 18.9569 39.1474 18.5798C38.4579 18.192 37.9139 17.6479 37.5153 16.9477C37.1274 16.2474 36.9335 15.4394 36.9335 14.5237C36.9335 13.608 37.1328 12.8 37.5314 12.0997C37.9408 11.3994 38.4956 10.8608 39.1959 10.4837C39.8962 10.0958 40.6772 9.90193 41.5391 9.90193C42.401 9.90193 43.182 10.0958 43.8823 10.4837C44.5826 10.8608 45.132 11.3994 45.5306 12.0997C45.94 12.8 46.1447 13.608 46.1447 14.5237C46.1447 15.4394 45.9346 16.2474 45.5144 16.9477C45.1051 17.6479 44.5448 18.192 43.8338 18.5798C43.1335 18.9569 42.3471 19.1454 41.4744 19.1454ZM41.4744 17.1739C41.8838 17.1739 42.2663 17.077 42.6218 16.883C42.9881 16.6783 43.279 16.3767 43.4944 15.9781C43.7099 15.5795 43.8176 15.0947 43.8176 14.5237C43.8176 13.6726 43.5914 13.0208 43.1389 12.5683C42.6972 12.1051 42.1532 11.8734 41.5068 11.8734C40.8604 11.8734 40.3163 12.1051 39.8746 12.5683C39.4437 13.0208 39.2282 13.6726 39.2282 14.5237C39.2282 15.3748 39.4383 16.0319 39.8584 16.4952C40.2894 16.9477 40.828 17.1739 41.4744 17.1739ZM51.7796 19.1454C50.9177 19.1454 50.142 18.9569 49.4526 18.5798C48.7631 18.192 48.219 17.6479 47.8204 16.9477C47.4326 16.2474 47.2386 15.4394 47.2386 14.5237C47.2386 13.608 47.4379 12.8 47.8366 12.0997C48.2459 11.3994 48.8008 10.8608 49.501 10.4837C50.2013 10.0958 50.9824 9.90193 51.8442 9.90193C52.7061 9.90193 53.4872 10.0958 54.1874 10.4837C54.8877 10.8608 55.4371 11.3994 55.8357 12.0997C56.2451 12.8 56.4498 13.608 56.4498 14.5237C56.4498 15.4394 56.2397 16.2474 55.8196 16.9477C55.4102 17.6479 54.85 18.192 54.139 18.5798C53.4387 18.9569 52.6522 19.1454 51.7796 19.1454ZM51.7796 17.1739C52.189 17.1739 52.5714 17.077 52.927 16.883C53.2932 16.6783 53.5841 16.3767 53.7996 15.9781C54.0151 15.5795 54.1228 15.0947 54.1228 14.5237C54.1228 13.6726 53.8966 13.0208 53.4441 12.5683C53.0024 12.1051 52.4583 11.8734 51.8119 11.8734C51.1655 11.8734 50.6215 12.1051 50.1798 12.5683C49.7488 13.0208 49.5334 13.6726 49.5334 14.5237C49.5334 15.3748 49.7434 16.0319 50.1636 16.4952C50.5945 16.9477 51.1332 17.1739 51.7796 17.1739ZM60.7435 11.9058V16.2366C60.7435 16.5383 60.8135 16.7591 60.9535 16.8992C61.1044 17.0285 61.3522 17.0931 61.6969 17.0931H62.7473V19H61.3252C59.4183 19 58.4649 18.0735 58.4649 16.2205V11.9058H57.3983V10.0474H58.4649V7.83345H60.7435V10.0474H62.7473V11.9058H60.7435ZM67.8005 19.1454C67.0679 19.1454 66.4107 19.0162 65.8289 18.7576C65.2472 18.4883 64.7839 18.1274 64.4392 17.6749C64.1052 17.2224 63.9221 16.7214 63.8897 16.172H66.1683C66.2114 16.5167 66.3784 16.8022 66.6693 17.0285C66.9709 17.2547 67.3426 17.3678 67.7843 17.3678C68.2152 17.3678 68.5492 17.2817 68.7862 17.1093C69.034 16.9369 69.1579 16.7161 69.1579 16.4467C69.1579 16.1558 69.0071 15.9404 68.7054 15.8003C68.4145 15.6495 67.9459 15.4879 67.2995 15.3155C66.6315 15.1539 66.0821 14.9869 65.6512 14.8146C65.231 14.6422 64.8647 14.3782 64.5523 14.0227C64.2506 13.6672 64.0998 13.1878 64.0998 12.5845C64.0998 12.0889 64.2399 11.6364 64.52 11.227C64.8109 10.8177 65.2202 10.4945 65.7481 10.2574C66.2868 10.0204 66.917 9.90193 67.6389 9.90193C68.7054 9.90193 69.5565 10.1713 70.1921 10.7099C70.8278 11.2378 71.1779 11.9542 71.2425 12.8592H69.0771C69.0448 12.5037 68.8939 12.2236 68.6246 12.0189C68.3661 11.8034 68.0159 11.6957 67.5742 11.6957C67.1648 11.6957 66.847 11.7711 66.6208 11.9219C66.4053 12.0728 66.2976 12.2828 66.2976 12.5522C66.2976 12.8538 66.4484 13.0854 66.7501 13.247C67.0517 13.3979 67.5203 13.5541 68.156 13.7157C68.8024 13.8773 69.3356 14.0443 69.7558 14.2166C70.176 14.389 70.5369 14.6584 70.8385 15.0246C71.151 15.3802 71.3126 15.8542 71.3233 16.4467C71.3233 16.9638 71.1779 17.4271 70.887 17.8365C70.6069 18.2459 70.1975 18.5691 69.6588 18.8061C69.131 19.0323 68.5115 19.1454 67.8005 19.1454ZM75.8145 11.9058V16.2366C75.8145 16.5383 75.8846 16.7591 76.0246 16.8992C76.1754 17.0285 76.4232 17.0931 76.768 17.0931H77.8184V19H76.3963C74.4894 19 73.536 18.0735 73.536 16.2205V11.9058H72.4694V10.0474H73.536V7.83345H75.8145V10.0474H77.8184V11.9058H75.8145ZM81.708 11.4371C81.9989 10.9631 82.376 10.5914 82.8392 10.3221C83.3132 10.0528 83.8519 9.91809 84.4552 9.91809V12.2936H83.8573C83.1462 12.2936 82.6076 12.4606 82.2413 12.7946C81.8858 13.1285 81.708 13.7103 81.708 14.5398V19H79.4456V10.0474H81.708V11.4371ZM85.3973 14.4914C85.3973 13.5864 85.575 12.7838 85.9306 12.0835C86.2969 11.3833 86.787 10.8446 87.4011 10.4675C88.026 10.0905 88.7209 9.90193 89.4858 9.90193C90.1537 9.90193 90.7355 10.0366 91.231 10.3059C91.7374 10.5753 92.1414 10.9146 92.443 11.324V10.0474H94.7216V19H92.443V17.691C92.1522 18.1112 91.7482 18.4613 91.231 18.7414C90.7247 19.0108 90.1375 19.1454 89.4696 19.1454C88.7155 19.1454 88.026 18.9515 87.4011 18.5637C86.787 18.1758 86.2969 17.6318 85.9306 16.9315C85.575 16.2205 85.3973 15.4071 85.3973 14.4914ZM92.443 14.5237C92.443 13.9742 92.3353 13.5056 92.1198 13.1178C91.9044 12.7192 91.6135 12.4175 91.2472 12.2128C90.8809 11.9973 90.4877 11.8896 90.0675 11.8896C89.6474 11.8896 89.2595 11.992 88.904 12.1966C88.5485 12.4013 88.2576 12.703 88.0314 13.1016C87.8159 13.4894 87.7082 13.9527 87.7082 14.4914C87.7082 15.03 87.8159 15.5041 88.0314 15.9134C88.2576 16.3121 88.5485 16.6191 88.904 16.8346C89.2703 17.05 89.6581 17.1578 90.0675 17.1578C90.4877 17.1578 90.8809 17.0554 91.2472 16.8507C91.6135 16.6353 91.9044 16.3336 92.1198 15.9458C92.3353 15.5471 92.443 15.0731 92.443 14.5237ZM99.1936 11.3402C99.4845 10.9308 99.8831 10.5914 100.389 10.3221C100.907 10.042 101.494 9.90193 102.151 9.90193C102.916 9.90193 103.605 10.0905 104.219 10.4675C104.844 10.8446 105.334 11.3833 105.69 12.0835C106.056 12.773 106.239 13.5756 106.239 14.4914C106.239 15.4071 106.056 16.2205 105.69 16.9315C105.334 17.6318 104.844 18.1758 104.219 18.5637C103.605 18.9515 102.916 19.1454 102.151 19.1454C101.494 19.1454 100.912 19.0108 100.406 18.7414C99.91 18.4721 99.506 18.1327 99.1936 17.7234V23.2662H96.9312V10.0474H99.1936V11.3402ZM103.928 14.4914C103.928 13.9527 103.815 13.4894 103.589 13.1016C103.374 12.703 103.083 12.4013 102.716 12.1966C102.361 11.992 101.973 11.8896 101.553 11.8896C101.144 11.8896 100.756 11.9973 100.389 12.2128C100.034 12.4175 99.7431 12.7192 99.5168 13.1178C99.3014 13.5164 99.1936 13.985 99.1936 14.5237C99.1936 15.0624 99.3014 15.531 99.5168 15.9296C99.7431 16.3282 100.034 16.6353 100.389 16.8507C100.756 17.0554 101.144 17.1578 101.553 17.1578C101.973 17.1578 102.361 17.05 102.716 16.8346C103.083 16.6191 103.374 16.3121 103.589 15.9134C103.815 15.5148 103.928 15.0408 103.928 14.4914Z" fill="#393737"/>
<path d="M3.375 21.014C3.375 22.4562 4.544 23.625 5.98605 23.625H21.014C22.4562 23.625 23.625 22.456 23.625 21.014V5.98605C23.625 4.54385 22.456 3.375 21.014 3.375H5.98605C4.54385 3.375 3.375 4.544 3.375 5.98605V21.014Z" fill="#563D7C"/>
<path d="M11.7722 12.3323V9.4646H14.2964C14.5368 9.4646 14.7687 9.48464 14.9919 9.5247C15.2151 9.56477 15.4126 9.63632 15.5843 9.73935C15.756 9.84238 15.8934 9.98548 15.9965 10.1686C16.0995 10.3518 16.151 10.5865 16.151 10.8727C16.151 11.3879 15.9965 11.7599 15.6874 11.9889C15.3783 12.2178 14.9833 12.3323 14.5025 12.3323H11.7722ZM9.07617 7.36963V19.6304H15.0177C15.5672 19.6304 16.1023 19.5617 16.6232 19.4243C17.1441 19.2869 17.6077 19.0751 18.0141 18.7889C18.4206 18.5027 18.744 18.1336 18.9844 17.6814C19.2248 17.2292 19.345 16.694 19.345 16.0758C19.345 15.3088 19.1589 14.6534 18.7869 14.1096C18.4148 13.5658 17.851 13.1852 17.0955 12.9677C17.645 12.7044 18.0599 12.3667 18.3404 11.9545C18.6209 11.5424 18.7611 11.0272 18.7611 10.4091C18.7611 9.83666 18.6667 9.35585 18.4778 8.96662C18.2889 8.57738 18.0227 8.26543 17.6793 8.03075C17.3359 7.79606 16.9237 7.62721 16.4429 7.52418C15.9621 7.42114 15.4298 7.36963 14.8459 7.36963H9.07617ZM11.7722 17.5354V14.1697H14.7086C15.2924 14.1697 15.7618 14.3042 16.1167 14.5732C16.4715 14.8423 16.649 15.2916 16.649 15.9212C16.649 16.2418 16.5946 16.5051 16.4858 16.7111C16.3771 16.9172 16.2311 17.0803 16.048 17.2005C15.8648 17.3207 15.653 17.4066 15.4126 17.4581C15.1722 17.5096 14.9203 17.5354 14.657 17.5354H11.7722Z" fill="white"/>
</svg>
