<svg width="277" height="277" viewBox="0 0 277 277" fill="none" xmlns="http://www.w3.org/2000/svg">
<g filter="url(#filter0_d_434_545)">
<path fill-rule="evenodd" clip-rule="evenodd" d="M158.008 149H181.01C178.973 148.085 176.745 147.211 174.249 146.304C165.606 143.045 156.523 140.532 147 138.765L147 145.517C150.768 146.558 154.437 147.719 158.008 149ZM226 149H195.486C190.694 145.302 185.12 142.149 178.764 139.542C174.705 137.862 170.511 136.348 166.181 135H226V149Z" fill="#F38B4A"/>
<mask id="path-2-outside-1_434_545" maskUnits="userSpaceOnUse" x="63.7217" y="77.6582" width="144" height="118" fill="black">
<rect fill="white" x="63.7217" y="77.6582" width="144" height="118"/>
<path fill-rule="evenodd" clip-rule="evenodd" d="M73.362 78.6582C73.3565 79.8265 73.3606 80.9882 73.3645 82.135C73.3671 82.868 73.3696 83.5949 73.3696 84.3137C73.3696 95.6851 76.111 104.53 81.5936 110.847C87.0763 117.059 94.517 121.797 103.916 125.061C113.413 128.325 124.182 131.168 136.224 133.59C148.854 136.117 160.603 139.802 171.47 144.645C182.435 149.489 191.296 155.911 198.051 163.913C202.294 168.873 205.413 176.037 207.147 183.628C206.942 184.082 206.746 184.485 206.558 184.832C204.71 188.253 202.177 191.478 199.366 194.44C199.37 194.163 199.373 193.885 199.373 193.605C199.373 183.287 196.289 174.864 190.121 168.336C184.051 161.702 176.169 156.49 166.477 152.7C156.882 148.804 146.798 145.803 136.224 143.698C122.616 140.96 110.378 137.538 99.5101 133.432C88.7406 129.22 80.2229 123.324 73.9571 115.743C68.5175 109.07 65.439 100.295 64.7217 89.4168C67.3136 85.5895 70.1937 82.0033 73.362 78.6582Z"/>
</mask>
<path fill-rule="evenodd" clip-rule="evenodd" d="M73.362 78.6582C73.3565 79.8265 73.3606 80.9882 73.3645 82.135C73.3671 82.868 73.3696 83.5949 73.3696 84.3137C73.3696 95.6851 76.111 104.53 81.5936 110.847C87.0763 117.059 94.517 121.797 103.916 125.061C113.413 128.325 124.182 131.168 136.224 133.59C148.854 136.117 160.603 139.802 171.47 144.645C182.435 149.489 191.296 155.911 198.051 163.913C202.294 168.873 205.413 176.037 207.147 183.628C206.942 184.082 206.746 184.485 206.558 184.832C204.71 188.253 202.177 191.478 199.366 194.44C199.37 194.163 199.373 193.885 199.373 193.605C199.373 183.287 196.289 174.864 190.121 168.336C184.051 161.702 176.169 156.49 166.477 152.7C156.882 148.804 146.798 145.803 136.224 143.698C122.616 140.96 110.378 137.538 99.5101 133.432C88.7406 129.22 80.2229 123.324 73.9571 115.743C68.5175 109.07 65.439 100.295 64.7217 89.4168C67.3136 85.5895 70.1937 82.0033 73.362 78.6582Z" fill="url(#paint0_linear_434_545)"/>
<path d="M73.362 78.6582L73.7078 78.6598L73.7119 77.7861L73.111 78.4204L73.362 78.6582ZM73.3645 82.135L73.0188 82.1362L73.0188 82.1362L73.3645 82.135ZM81.5936 110.847L81.3325 111.074L81.3344 111.076L81.5936 110.847ZM103.916 125.061L103.802 125.388L103.803 125.388L103.916 125.061ZM136.224 133.59L136.156 133.929L136.157 133.929L136.224 133.59ZM171.47 144.645L171.329 144.961L171.33 144.961L171.47 144.645ZM198.051 163.913L197.787 164.136L197.788 164.138L198.051 163.913ZM207.147 183.628L207.462 183.77L207.51 183.664L207.484 183.551L207.147 183.628ZM206.558 184.832L206.862 184.996L206.862 184.996L206.558 184.832ZM199.366 194.44L199.02 194.435L199.006 195.322L199.617 194.678L199.366 194.44ZM190.121 168.336L189.866 168.569L189.869 168.573L190.121 168.336ZM166.477 152.7L166.347 153.02L166.351 153.022L166.477 152.7ZM136.224 143.698L136.156 144.037L136.157 144.037L136.224 143.698ZM99.5101 133.432L99.3842 133.754L99.3879 133.755L99.5101 133.432ZM73.9571 115.743L73.6891 115.961L73.6906 115.963L73.9571 115.743ZM64.7217 89.4168L64.4354 89.223L64.3689 89.3212L64.3767 89.4396L64.7217 89.4168ZM73.0163 78.6566C73.0108 79.8266 73.0148 80.9896 73.0188 82.1362L73.7103 82.1338C73.7063 80.9867 73.7023 79.8265 73.7078 78.6598L73.0163 78.6566ZM73.0188 82.1362C73.0214 82.8693 73.0239 83.5956 73.0239 84.3137H73.7154C73.7154 83.5942 73.7128 82.8667 73.7103 82.1338L73.0188 82.1362ZM73.0239 84.3137C73.0239 95.7383 75.7783 104.674 81.3325 111.074L81.8547 110.62C76.4436 104.385 73.7154 95.6319 73.7154 84.3137H73.0239ZM81.3344 111.076C86.8636 117.341 94.3586 122.108 103.802 125.388L104.029 124.735C94.6754 121.486 87.2889 116.778 81.8528 110.618L81.3344 111.076ZM103.803 125.388C113.317 128.658 124.102 131.505 136.156 133.929L136.293 133.251C124.262 130.831 113.508 127.992 104.028 124.734L103.803 125.388ZM136.157 133.929C148.763 136.451 160.487 140.129 171.329 144.961L171.611 144.329C160.718 139.475 148.945 135.782 136.292 133.251L136.157 133.929ZM171.33 144.961C182.255 149.787 191.07 156.18 197.787 164.136L198.315 163.69C191.521 155.643 182.616 149.19 171.61 144.329L171.33 144.961ZM197.788 164.138C201.984 169.042 205.084 176.149 206.81 183.705L207.484 183.551C205.742 175.926 202.604 168.704 198.314 163.689L197.788 164.138ZM206.862 184.996C207.055 184.64 207.255 184.229 207.462 183.77L206.831 183.486C206.629 183.934 206.436 184.329 206.254 184.668L206.862 184.996ZM199.617 194.678C202.442 191.702 204.995 188.452 206.862 184.996L206.254 184.668C204.425 188.054 201.913 191.255 199.115 194.202L199.617 194.678ZM199.712 194.446C199.716 194.167 199.719 193.887 199.719 193.605H199.027C199.027 193.883 199.025 194.159 199.02 194.435L199.712 194.446ZM199.719 193.605C199.719 183.213 196.61 174.7 190.372 168.098L189.869 168.573C195.968 175.027 199.027 183.361 199.027 193.605H199.719ZM190.376 168.102C184.265 161.424 176.337 156.185 166.603 152.378L166.351 153.022C176.002 156.796 183.837 161.98 189.866 168.569L190.376 168.102ZM166.607 152.38C156.991 148.475 146.886 145.468 136.292 143.359L136.157 144.037C146.71 146.138 156.773 149.133 166.347 153.02L166.607 152.38ZM136.293 143.359C122.699 140.624 110.479 137.207 99.6324 133.108L99.3879 133.755C110.276 137.869 122.532 141.296 136.156 144.037L136.293 143.359ZM99.6361 133.11C88.9116 128.916 80.4459 123.051 74.2236 115.523L73.6906 115.963C80 123.597 88.5696 129.525 99.3842 133.754L99.6361 133.11ZM74.225 115.525C68.8416 108.921 65.7806 100.22 65.0667 89.3941L64.3767 89.4396C65.0975 100.37 68.1934 109.22 73.6891 115.961L74.225 115.525ZM73.111 78.4204C69.9297 81.7792 67.0378 85.3801 64.4354 89.223L65.008 89.6107C67.5894 85.7989 70.4577 82.2273 73.613 78.896L73.111 78.4204Z" fill="url(#paint1_linear_434_545)" mask="url(#path-2-outside-1_434_545)"/>
<path d="M136.272 264C118.152 264 101.272 260.707 85.6336 254.12C70.1193 247.416 56.5287 238.182 44.862 226.42C33.3193 214.541 24.259 200.838 17.6809 185.312C11.227 169.786 8 153.261 8 135.735C8 117.269 11.4752 100.273 18.4256 84.7471C25.376 69.2212 34.8708 55.7537 46.9099 44.3446C58.949 32.8178 72.6636 23.8787 88.0538 17.5272C103.568 11.1757 119.827 8 136.831 8C156.069 8 174.562 12.2343 192.31 20.703C210.058 29.1716 225.511 41.8746 238.667 58.8118L204.039 76.6313C195.102 66.0455 184.677 58.0473 172.762 52.6368C160.971 47.2263 148.87 44.521 136.458 44.521C124.419 44.521 113.001 46.8734 102.203 51.5782C91.4049 56.1654 81.8481 62.6345 73.5324 70.9855C65.2167 79.2189 58.6387 88.9226 53.7982 100.096C49.0819 111.153 46.7237 123.209 46.7237 136.265C46.7237 148.85 49.0198 160.671 53.612 171.727C58.3284 182.783 64.7823 192.487 72.9739 200.838C81.2896 209.071 90.8464 215.541 101.644 220.245C112.566 224.95 124.233 227.303 136.645 227.303C145.829 227.303 154.641 225.891 163.081 223.068C171.521 220.245 179.34 216.246 186.539 211.071C193.861 205.778 205.619 196.949 211.276 186.36C215.989 177.538 224.715 134.809 221.806 134.809H263.986C264.234 152.452 261.193 169.61 254.491 185.136C247.913 200.662 238.729 214.364 226.938 226.244C215.271 238.006 201.681 247.239 186.166 253.943C170.652 260.648 154.021 264 136.272 264Z" fill="url(#paint2_linear_434_545)"/>
</g>
<defs>
<filter id="filter0_d_434_545" x="0.615384" y="0.615384" width="275.692" height="275.692" filterUnits="userSpaceOnUse" color-interpolation-filters="sRGB">
<feFlood flood-opacity="0" result="BackgroundImageFix"/>
<feColorMatrix in="SourceAlpha" type="matrix" values="0 0 0 0 0 0 0 0 0 0 0 0 0 0 0 0 0 0 127 0" result="hardAlpha"/>
<feOffset dx="2.46154" dy="2.46154"/>
<feGaussianBlur stdDeviation="4.92308"/>
<feComposite in2="hardAlpha" operator="out"/>
<feColorMatrix type="matrix" values="0 0 0 0 0 0 0 0 0 0 0 0 0 0 0 0 0 0 0.15 0"/>
<feBlend mode="normal" in2="BackgroundImageFix" result="effect1_dropShadow_434_545"/>
<feBlend mode="normal" in="SourceGraphic" in2="effect1_dropShadow_434_545" result="shape"/>
</filter>
<linearGradient id="paint0_linear_434_545" x1="135.934" y1="78.6582" x2="135.934" y2="194.44" gradientUnits="userSpaceOnUse">
<stop stop-color="#F16529"/>
<stop offset="1" stop-color="#F4A460"/>
</linearGradient>
<linearGradient id="paint1_linear_434_545" x1="135.934" y1="78.6582" x2="135.934" y2="194.44" gradientUnits="userSpaceOnUse">
<stop stop-color="#F16529"/>
<stop offset="1" stop-color="#F4A460"/>
</linearGradient>
<linearGradient id="paint2_linear_434_545" x1="136" y1="8" x2="136" y2="264" gradientUnits="userSpaceOnUse">
<stop stop-color="#F16529"/>
<stop offset="1" stop-color="#F4A460"/>
</linearGradient>
</defs>
</svg>
