<svg width="90" height="27" viewBox="0 0 90 27" fill="none" xmlns="http://www.w3.org/2000/svg">
<path d="M30.9055 12.5311V16.5507C30.9055 16.8307 30.9705 17.0357 31.1005 17.1656C31.2404 17.2856 31.4704 17.3456 31.7904 17.3456H32.7653V19.1155H31.4454C29.6756 19.1155 28.7907 18.2556 28.7907 16.5357V12.5311H27.8007V10.8062H28.7907V8.75138H30.9055V10.8062H32.7653V12.5311H30.9055ZM33.7357 14.9308C33.7357 14.0909 33.9006 13.346 34.2306 12.696C34.5706 12.0461 35.0255 11.5461 35.5955 11.1962C36.1754 10.8462 36.8204 10.6712 37.5303 10.6712C38.1503 10.6712 38.6902 10.7962 39.1502 11.0462C39.6201 11.2962 39.9951 11.6111 40.2751 11.9911V10.8062H42.3899V19.1155H40.2751V17.9006C40.0051 18.2906 39.6301 18.6155 39.1502 18.8755C38.6802 19.1255 38.1353 19.2505 37.5153 19.2505C36.8154 19.2505 36.1754 19.0705 35.5955 18.7105C35.0255 18.3505 34.5706 17.8456 34.2306 17.1956C33.9006 16.5357 33.7357 15.7808 33.7357 14.9308ZM40.2751 14.9608C40.2751 14.4509 40.1751 14.0159 39.9751 13.656C39.7751 13.286 39.5052 13.006 39.1652 12.816C38.8252 12.616 38.4602 12.5161 38.0703 12.5161C37.6803 12.5161 37.3203 12.611 36.9904 12.801C36.6604 12.991 36.3904 13.271 36.1804 13.641C35.9805 14.0009 35.8805 14.4309 35.8805 14.9308C35.8805 15.4308 35.9805 15.8708 36.1804 16.2507C36.3904 16.6207 36.6604 16.9057 36.9904 17.1057C37.3303 17.3056 37.6903 17.4056 38.0703 17.4056C38.4602 17.4056 38.8252 17.3106 39.1652 17.1207C39.5052 16.9207 39.7751 16.6407 39.9751 16.2807C40.1751 15.9108 40.2751 15.4708 40.2751 14.9608ZM45.5056 9.81629C45.1357 9.81629 44.8257 9.7013 44.5757 9.47132C44.3357 9.23134 44.2158 8.93637 44.2158 8.5864C44.2158 8.23643 44.3357 7.94645 44.5757 7.71647C44.8257 7.47649 45.1357 7.3565 45.5056 7.3565C45.8756 7.3565 46.1806 7.47649 46.4206 7.71647C46.6705 7.94645 46.7955 8.23643 46.7955 8.5864C46.7955 8.93637 46.6705 9.23134 46.4206 9.47132C46.1806 9.7013 45.8756 9.81629 45.5056 9.81629ZM46.5406 10.8062V19.1155H44.4407V10.8062H46.5406ZM50.715 8.01645V19.1155H48.6152V8.01645H50.715ZM64.3086 10.8062L61.8788 19.1155H59.614L58.0992 13.311L56.5843 19.1155H54.3045L51.8597 10.8062H53.9895L55.4594 17.1357L57.0492 10.8062H59.2691L60.8289 17.1207L62.2988 10.8062H64.3086ZM66.5097 9.81629C66.1397 9.81629 65.8297 9.7013 65.5798 9.47132C65.3398 9.23134 65.2198 8.93637 65.2198 8.5864C65.2198 8.23643 65.3398 7.94645 65.5798 7.71647C65.8297 7.47649 66.1397 7.3565 66.5097 7.3565C66.8796 7.3565 67.1846 7.47649 67.4246 7.71647C67.6746 7.94645 67.7996 8.23643 67.7996 8.5864C67.7996 8.93637 67.6746 9.23134 67.4246 9.47132C67.1846 9.7013 66.8796 9.81629 66.5097 9.81629ZM67.5446 10.8062V19.1155H65.4448V10.8062H67.5446ZM74.2238 10.6862C75.2137 10.6862 76.0136 11.0012 76.6236 11.6311C77.2335 12.2511 77.5385 13.121 77.5385 14.2409V19.1155H75.4387V14.5259C75.4387 13.8659 75.2737 13.361 74.9437 13.011C74.6138 12.651 74.1638 12.4711 73.5939 12.4711C73.0139 12.4711 72.554 12.651 72.214 13.011C71.884 13.361 71.719 13.8659 71.719 14.5259V19.1155H69.6192V10.8062H71.719V11.8411C71.999 11.4811 72.354 11.2012 72.7839 11.0012C73.2239 10.7912 73.7039 10.6862 74.2238 10.6862ZM78.9954 14.9308C78.9954 14.0909 79.1604 13.346 79.4903 12.696C79.8303 12.0461 80.2903 11.5461 80.8702 11.1962C81.4502 10.8462 82.0951 10.6712 82.805 10.6712C83.345 10.6712 83.86 10.7912 84.3499 11.0312C84.8399 11.2612 85.2298 11.5711 85.5198 11.9611V8.01645H87.6496V19.1155H85.5198V17.8856C85.2598 18.2956 84.8949 18.6255 84.4249 18.8755C83.9549 19.1255 83.41 19.2505 82.79 19.2505C82.0901 19.2505 81.4502 19.0705 80.8702 18.7105C80.2903 18.3505 79.8303 17.8456 79.4903 17.1956C79.1604 16.5357 78.9954 15.7808 78.9954 14.9308ZM85.5348 14.9608C85.5348 14.4509 85.4348 14.0159 85.2348 13.656C85.0349 13.286 84.7649 13.006 84.4249 12.816C84.0849 12.616 83.72 12.5161 83.33 12.5161C82.94 12.5161 82.5801 12.611 82.2501 12.801C81.9201 12.991 81.6501 13.271 81.4402 13.641C81.2402 14.0009 81.1402 14.4309 81.1402 14.9308C81.1402 15.4308 81.2402 15.8708 81.4402 16.2507C81.6501 16.6207 81.9201 16.9057 82.2501 17.1057C82.5901 17.3056 82.95 17.4056 83.33 17.4056C83.72 17.4056 84.0849 17.3106 84.4249 17.1207C84.7649 16.9207 85.0349 16.6407 85.2348 16.2807C85.4348 15.9108 85.5348 15.4708 85.5348 14.9608Z" fill="#393737"/>
<path d="M12.9998 6.75C10.1109 6.75 8.30539 8.25 7.58317 11.25C8.6665 9.75 9.93039 9.1875 11.3748 9.5625C12.199 9.77646 12.788 10.3973 13.44 11.0846C14.5022 12.2042 15.7315 13.5 18.4165 13.5C21.3054 13.5 23.1109 12 23.8332 9C22.7498 10.5 21.4859 11.0625 20.0415 10.6875C19.2174 10.4735 18.6283 9.85267 17.9763 9.16537C16.9142 8.04579 15.6849 6.75 12.9998 6.75ZM7.58317 13.5C4.69428 13.5 2.88873 15 2.1665 18C3.24984 16.5 4.51373 15.9375 5.95817 16.3125C6.78231 16.5265 7.37136 17.1473 8.02337 17.8346C9.08551 18.9542 10.3148 20.25 12.9998 20.25C15.8887 20.25 17.6943 18.75 18.4165 15.75C17.3332 17.25 16.0693 17.8125 14.6248 17.4375C13.8007 17.2235 13.2116 16.6027 12.5596 15.9154C11.4975 14.7958 10.2682 13.5 7.58317 13.5Z" fill="url(#paint0_linear_430_358)"/>
<defs>
<linearGradient id="paint0_linear_430_358" x1="1.56465" y1="11.07" x2="20.6231" y2="21.6517" gradientUnits="userSpaceOnUse">
<stop stop-color="#2298BD"/>
<stop offset="1" stop-color="#0ED7B5"/>
</linearGradient>
</defs>
</svg>
