<svg width="102" height="106" viewBox="0 0 102 106" fill="none" xmlns="http://www.w3.org/2000/svg">
<g filter="url(#filter0_d_415_272)">
<path fill-rule="evenodd" clip-rule="evenodd" d="M33.8746 47L28 47V50.6947H42.6434C40.7688 50.1813 39.0206 49.6013 37.3989 48.9547C36.0854 48.4126 34.9106 47.7611 33.8746 47ZM46.977 49.152V47L38.9621 47C41.131 47.7574 43.5645 48.4223 46.2626 48.9949C46.502 49.0455 46.7402 49.0978 46.977 49.152Z" fill="#F38B4A"/>
<path fill-rule="evenodd" clip-rule="evenodd" d="M47.6953 48.1565L47.6953 50.6947H55.5916C55.0384 50.4323 54.429 50.1856 53.7369 49.9285C51.8107 49.1858 49.7968 48.5951 47.6953 48.1565ZM59.1276 50.6947H66.6723V47L51.5728 47C52.7062 47.3555 53.8024 47.7574 54.8615 48.2056C56.4896 48.8885 57.9116 49.7182 59.1276 50.6947Z" fill="#F38B4A"/>
<path fill-rule="evenodd" clip-rule="evenodd" d="M47.6953 48.1565L47.6953 50.6947H55.5916C55.0384 50.4323 54.429 50.1856 53.7369 49.9285C51.8107 49.1858 49.7968 48.5951 47.6953 48.1565ZM59.1276 50.6947H66.6723V47L51.5728 47C52.7062 47.3555 53.8024 47.7574 54.8615 48.2056C56.4896 48.8885 57.9116 49.7182 59.1276 50.6947Z" fill="#F38B4A"/>
<mask id="path-4-outside-1_415_272" maskUnits="userSpaceOnUse" x="27.6953" y="31" width="37" height="34" fill="black">
<rect fill="white" x="27.6953" y="31" width="37" height="34"/>
<path fill-rule="evenodd" clip-rule="evenodd" d="M30.7814 33C30.78 33.2979 30.781 33.5941 30.782 33.8865C30.7826 34.0732 30.7832 34.2584 30.7832 34.4416C30.7832 37.3385 31.445 39.5916 32.7687 41.2011C34.0923 42.7836 35.8887 43.9907 38.1578 44.8222C40.4506 45.6537 43.0506 46.378 45.9579 46.9949C49.0071 47.6387 51.8435 48.5775 54.4671 49.8114C57.1144 51.0452 59.2536 52.6815 60.8845 54.72C61.9086 55.9833 62.6616 57.808 63.0802 59.7415C63.0307 59.8574 62.9831 59.9603 62.9377 60.049C62.4917 60.9202 61.8804 61.7417 61.2019 62.4962C61.203 62.4258 61.2036 62.3551 61.2036 62.2842C61.2036 59.6555 60.459 57.5097 58.9699 55.8466C57.5044 54.1567 55.6017 52.829 53.2617 51.8633C50.9453 50.8709 48.5107 50.1064 45.9579 49.5699C42.6724 48.8725 39.7179 48.0008 37.0942 46.9547C34.4942 45.8817 32.4378 44.3796 30.925 42.4483C29.6116 40.7483 28.8684 38.5124 28.6953 35.7407C29.3211 34.7657 30.0164 33.8521 30.7814 33Z"/>
</mask>
<path fill-rule="evenodd" clip-rule="evenodd" d="M30.7814 33C30.78 33.2979 30.781 33.5941 30.782 33.8865C30.7826 34.0732 30.7832 34.2584 30.7832 34.4416C30.7832 37.3385 31.445 39.5916 32.7687 41.2011C34.0923 42.7836 35.8887 43.9907 38.1578 44.8222C40.4506 45.6537 43.0506 46.378 45.9579 46.9949C49.0071 47.6387 51.8435 48.5775 54.4671 49.8114C57.1144 51.0452 59.2536 52.6815 60.8845 54.72C61.9086 55.9833 62.6616 57.808 63.0802 59.7415C63.0307 59.8574 62.9831 59.9603 62.9377 60.049C62.4917 60.9202 61.8804 61.7417 61.2019 62.4962C61.203 62.4258 61.2036 62.3551 61.2036 62.2842C61.2036 59.6555 60.459 57.5097 58.9699 55.8466C57.5044 54.1567 55.6017 52.829 53.2617 51.8633C50.9453 50.8709 48.5107 50.1064 45.9579 49.5699C42.6724 48.8725 39.7179 48.0008 37.0942 46.9547C34.4942 45.8817 32.4378 44.3796 30.925 42.4483C29.6116 40.7483 28.8684 38.5124 28.6953 35.7407C29.3211 34.7657 30.0164 33.8521 30.7814 33Z" fill="url(#paint0_linear_415_272)"/>
<path d="M30.7814 33L31.4837 33.0031L31.4919 31.1571L30.2588 32.5309L30.7814 33ZM30.782 33.8865L31.4843 33.8842L31.4843 33.8842L30.782 33.8865ZM32.7687 41.2011L32.2263 41.6472L32.23 41.6516L32.7687 41.2011ZM38.1578 44.8222L37.9162 45.4816L37.9184 45.4824L38.1578 44.8222ZM45.9579 46.9949L45.8122 47.6819L45.8129 47.682L45.9579 46.9949ZM54.4671 49.8114L54.1682 50.4469L54.1704 50.4479L54.4671 49.8114ZM60.8845 54.72L60.3361 55.1588L60.3389 55.1623L60.8845 54.72ZM63.0802 59.7415L63.726 60.0173L63.8139 59.8116L63.7666 59.5929L63.0802 59.7415ZM62.9377 60.049L62.3126 59.7289L62.3126 59.7289L62.9377 60.049ZM61.2019 62.4962L60.4997 62.4853L60.4706 64.3598L61.7241 62.9658L61.2019 62.4962ZM58.9699 55.8466L58.4393 56.3068L58.4467 56.3151L58.9699 55.8466ZM53.2617 51.8633L52.9851 52.5089L52.9938 52.5125L53.2617 51.8633ZM45.9579 49.5699L45.8121 50.2569L45.8135 50.2572L45.9579 49.5699ZM37.0942 46.9547L36.8263 47.6039L36.8341 47.607L37.0942 46.9547ZM30.925 42.4483L30.3693 42.8777L30.3721 42.8814L30.925 42.4483ZM28.6953 35.7407L28.1043 35.3613L27.9801 35.5549L27.9944 35.7845L28.6953 35.7407ZM30.0791 32.9969C30.0777 33.2979 30.0787 33.5968 30.0797 33.8888L31.4843 33.8842C31.4833 33.5913 31.4823 33.2979 31.4837 33.0031L30.0791 32.9969ZM30.0797 33.8888C30.0803 34.0758 30.0809 34.2598 30.0809 34.4416H31.4855C31.4855 34.2571 31.4849 34.0707 31.4843 33.8842L30.0797 33.8888ZM30.0809 34.4416C30.0809 37.4384 30.7654 39.8709 32.2263 41.6472L33.3111 40.7549C32.1247 39.3124 31.4855 37.2386 31.4855 34.4416H30.0809ZM32.23 41.6516C33.6452 43.3437 35.5514 44.615 37.9162 45.4816L38.3995 44.1628C36.226 43.3663 34.5394 42.2235 33.3074 40.7505L32.23 41.6516ZM37.9184 45.4824C40.2475 46.3271 42.8796 47.0596 45.8122 47.6819L46.1037 46.3079C43.2216 45.6963 40.6537 44.9803 38.3973 44.162L37.9184 45.4824ZM45.8129 47.682C48.8128 48.3154 51.5972 49.2377 54.1683 50.4469L54.766 49.1758C52.0897 47.9172 49.2013 46.9619 46.103 46.3078L45.8129 47.682ZM54.1704 50.4479C56.7315 51.6416 58.7804 53.2142 60.3361 55.1588L61.4329 54.2813C59.7267 52.1487 57.4974 50.4489 54.7638 49.1748L54.1704 50.4479ZM60.3389 55.1623C61.2713 56.3124 61.9896 58.0229 62.3938 59.8901L63.7666 59.5929C63.3337 57.5932 62.5459 55.6543 61.43 54.2778L60.3389 55.1623ZM63.5628 60.369C63.6175 60.2622 63.672 60.1438 63.726 60.0173L62.4343 59.4657C62.3894 59.5709 62.3487 59.6584 62.3126 59.7289L63.5628 60.369ZM61.7241 62.9658C62.4297 62.1812 63.0812 61.3098 63.5628 60.369L62.3126 59.7289C61.9022 60.5306 61.3311 61.3022 60.6797 62.0266L61.7241 62.9658ZM61.9041 62.5071C61.9053 62.433 61.9059 62.3587 61.9059 62.2842H60.5013C60.5013 62.3515 60.5008 62.4185 60.4997 62.4853L61.9041 62.5071ZM61.9059 62.2842C61.9059 59.5152 61.1175 57.1923 59.4931 55.3781L58.4467 56.3151C59.8005 57.827 60.5013 59.7959 60.5013 62.2842H61.9059ZM59.5005 55.3865C57.9544 53.6037 55.9573 52.216 53.5296 51.2142L52.9938 52.5125C55.2461 53.442 57.0544 54.7098 58.4393 56.3067L59.5005 55.3865ZM53.5382 51.2178C51.1778 50.2065 48.6989 49.4283 46.1024 48.8827L45.8135 50.2572C48.3225 50.7845 50.7127 51.5353 52.9851 52.5089L53.5382 51.2178ZM46.1038 48.883C42.8502 48.1923 39.9348 47.3312 37.3543 46.3023L36.8341 47.607C39.501 48.6703 42.4947 49.5527 45.8121 50.2569L46.1038 48.883ZM37.3621 46.3055C34.8575 45.2719 32.9055 43.8379 31.4779 42.0153L30.3721 42.8814C31.97 44.9213 34.1308 46.4915 36.8263 47.6039L37.3621 46.3055ZM31.4808 42.019C30.2752 40.4584 29.5631 38.3692 29.3962 35.6969L27.9944 35.7845C28.1737 38.6556 28.9481 41.0381 30.3693 42.8777L31.4808 42.019ZM30.2588 32.5309C29.4684 33.4114 28.7502 34.355 28.1043 35.3613L29.2863 36.12C29.892 35.1764 30.5645 34.2929 31.304 33.4691L30.2588 32.5309Z" fill="url(#paint1_linear_415_272)" mask="url(#path-4-outside-1_415_272)"/>
<path d="M45.9682 80.2175C41.5934 80.2175 37.5182 79.3785 33.7427 77.7005C29.9972 75.9925 26.7161 73.6403 23.8994 70.6438C21.1127 67.6174 18.9253 64.1266 17.3372 60.1713C15.7791 56.216 15 52.006 15 47.5413C15 42.8369 15.839 38.5071 17.517 34.5518C19.195 30.5965 21.4873 27.1655 24.3938 24.259C27.3004 21.3225 30.6114 19.0452 34.327 17.4271C38.0726 15.809 41.9979 15 46.103 15C50.7475 15 55.2122 16.0787 59.4971 18.2362C63.782 20.3936 67.5126 23.6297 70.6888 27.9446L62.3287 32.4842C60.1713 29.7874 57.6543 27.7498 54.7777 26.3715C51.9311 24.9931 49.0096 24.3039 46.0131 24.3039C43.1066 24.3039 40.3499 24.9032 37.743 26.1018C35.1361 27.2704 32.8288 28.9185 30.8212 31.0459C28.8136 33.1434 27.2255 35.6155 26.0569 38.4621C24.9182 41.2788 24.3489 44.3501 24.3489 47.6762C24.3489 50.8823 24.9032 53.8938 26.0119 56.7104C27.1506 59.5271 28.7087 61.9991 30.6864 64.1266C32.694 66.2241 35.0012 67.8721 37.6081 69.0707C40.245 70.2693 43.0616 70.8686 46.0581 70.8686C48.2754 70.8686 50.4029 70.509 52.4405 69.7899C54.4781 69.0707 56.3658 68.0519 58.1038 66.7335C59.8717 65.3851 62.7102 63.1358 64.0759 60.4382C65.2137 58.1908 67.2023 47 66.5 47H77C77.0599 51.4947 76.1273 56.1711 74.5093 60.1264C72.9211 64.0817 70.7038 67.5725 67.8572 70.5989C65.0405 73.5953 61.7594 75.9475 58.0139 77.6555C54.2683 79.3635 50.2531 80.2175 45.9682 80.2175Z" fill="url(#paint2_linear_415_272)"/>
</g>
<defs>
<filter id="filter0_d_415_272" x="0" y="0" width="102.003" height="105.218" filterUnits="userSpaceOnUse" color-interpolation-filters="sRGB">
<feFlood flood-opacity="0" result="BackgroundImageFix"/>
<feColorMatrix in="SourceAlpha" type="matrix" values="0 0 0 0 0 0 0 0 0 0 0 0 0 0 0 0 0 0 127 0" result="hardAlpha"/>
<feOffset dx="5" dy="5"/>
<feGaussianBlur stdDeviation="10"/>
<feComposite in2="hardAlpha" operator="out"/>
<feColorMatrix type="matrix" values="0 0 0 0 0 0 0 0 0 0 0 0 0 0 0 0 0 0 0.15 0"/>
<feBlend mode="normal" in2="BackgroundImageFix" result="effect1_dropShadow_415_272"/>
<feBlend mode="normal" in="SourceGraphic" in2="effect1_dropShadow_415_272" result="shape"/>
</filter>
<linearGradient id="paint0_linear_415_272" x1="45.8877" y1="33" x2="45.8877" y2="62.4962" gradientUnits="userSpaceOnUse">
<stop stop-color="#F16529"/>
<stop offset="1" stop-color="#F4A460"/>
</linearGradient>
<linearGradient id="paint1_linear_415_272" x1="45.8877" y1="33" x2="45.8877" y2="62.4962" gradientUnits="userSpaceOnUse">
<stop stop-color="#F16529"/>
<stop offset="1" stop-color="#F4A460"/>
</linearGradient>
<linearGradient id="paint2_linear_415_272" x1="45.9025" y1="15" x2="45.9025" y2="80.2175" gradientUnits="userSpaceOnUse">
<stop stop-color="#F16529"/>
<stop offset="1" stop-color="#F4A460"/>
</linearGradient>
</defs>
</svg>
