<svg width="78" height="28" viewBox="0 0 78 28" fill="none" xmlns="http://www.w3.org/2000/svg">
<path d="M43.9976 10.9536C44.3867 10.9536 44.7647 11.0092 45.1316 11.1204C45.4873 11.2427 45.6763 11.3983 45.6763 11.5873C45.6763 11.6873 45.643 11.7874 45.5763 11.8763C45.5318 11.9653 45.4317 12.032 45.3317 12.032C45.1872 11.9875 45.0426 11.9319 44.8981 11.8652C44.6202 11.7429 44.32 11.6762 44.0088 11.6873C43.6864 11.6762 43.3528 11.754 43.0749 11.9208C42.8303 12.0876 42.6969 12.3766 42.7192 12.6768C42.7081 12.9547 42.8192 13.2215 43.0304 13.3994C43.2639 13.5884 43.5307 13.744 43.8198 13.8329C44.131 13.9441 44.4423 14.0664 44.7536 14.2109C45.0649 14.3666 45.3317 14.6 45.5318 14.8891C45.7541 15.2448 45.8653 15.6561 45.8542 16.0786C45.8542 16.7345 45.6652 17.2348 45.2761 17.5683C44.8536 17.924 44.3089 18.1019 43.7531 18.0685C43.2528 18.0797 42.7525 17.9574 42.319 17.7128C41.9187 17.446 41.7186 17.2125 41.7186 16.9791C41.7186 16.8679 41.7631 16.7678 41.8298 16.6789C41.8854 16.6011 41.9632 16.5455 42.0633 16.5344C42.1522 16.5455 42.23 16.59 42.2856 16.6567C42.3745 16.7345 42.4635 16.8234 42.5635 16.9235C42.6969 17.0458 42.8526 17.1347 43.0193 17.1903C43.2417 17.2792 43.4863 17.3126 43.7197 17.3126C44.0755 17.3348 44.4201 17.2236 44.698 17.0124C44.9426 16.7901 45.076 16.4566 45.0538 16.123C45.0649 15.8007 44.9537 15.5005 44.7314 15.267C44.509 15.0447 44.2422 14.8779 43.942 14.7668C43.6308 14.6556 43.3306 14.5333 43.0082 14.3999C42.6969 14.2665 42.4301 14.0664 42.2189 13.7996C41.9966 13.4994 41.8743 13.1326 41.8965 12.7546C41.8854 12.4544 41.9521 12.1543 42.0855 11.8763C42.1967 11.6429 42.3745 11.4539 42.5969 11.3205C42.8081 11.1982 43.0304 11.1093 43.2639 11.0425C43.5085 10.987 43.7531 10.9536 43.9976 10.9536ZM38.3057 11.4761C38.6837 11.8096 38.8727 12.3432 38.8727 13.0547V15.9341C38.8727 16.6567 38.6837 17.1792 38.3057 17.5127C37.4163 18.1908 36.1935 18.1908 35.3041 17.5127C34.9372 17.1792 34.7482 16.6567 34.7482 15.9341V13.0547C34.7482 12.3321 34.9372 11.8096 35.3041 11.4761C36.1935 10.8091 37.4163 10.8091 38.3057 11.4761ZM65.776 10.9758C66.0428 10.9758 66.2095 11.0648 66.2651 11.2538L68.2328 17.5905V17.6461C68.2328 17.7461 68.1661 17.8351 68.0772 17.8795C67.9772 17.9462 67.8549 17.9796 67.7215 17.9685C67.5992 17.9796 67.4769 17.9129 67.4324 17.7906L67.01 16.3899H64.4975L64.0751 17.7906C64.0417 17.9129 63.9083 17.9907 63.786 17.9796C63.6748 17.9796 63.5637 17.9462 63.4636 17.8795C63.3636 17.8351 63.308 17.7461 63.308 17.635C63.308 17.6127 63.3191 17.5794 63.3302 17.5572L65.2868 11.2538C65.3424 11.0648 65.5092 10.9758 65.776 10.9758ZM55.8595 10.9758C56.1152 10.9758 56.3265 11.1426 56.5043 11.4872L58.0051 14.3666L59.5171 11.4872C59.7061 11.1537 59.9173 10.9758 60.1619 10.9758C60.3508 10.9425 60.5287 11.0759 60.5621 11.2649C60.5732 11.2982 60.5732 11.3316 60.5621 11.3649V17.6683C60.5621 17.7573 60.5176 17.8351 60.4398 17.8795C60.2619 17.9796 60.0507 17.9796 59.8728 17.8795C59.795 17.8351 59.7505 17.7573 59.7505 17.6683V12.6545L58.3053 15.3671C58.2608 15.5005 58.1385 15.6005 57.994 15.6005C57.8606 15.5894 57.7383 15.5005 57.6939 15.3671L56.2486 12.5989V17.6683C56.2486 17.7573 56.2042 17.8351 56.1264 17.8795C56.0485 17.9351 55.9485 17.9685 55.8595 17.9685C55.7595 17.9685 55.6594 17.9462 55.5816 17.8907C55.4927 17.8573 55.4371 17.7684 55.4482 17.6794V11.3761C55.4149 11.1871 55.5483 11.0092 55.7373 10.9758C55.7817 10.9647 55.8262 10.9647 55.8595 10.9758ZM71.4012 10.9647C71.5235 10.9647 71.6458 11.0092 71.7458 11.087C71.857 11.1982 71.9571 11.3316 72.0126 11.4761L74.4028 16.1453V11.2427C74.4028 11.1537 74.4473 11.0759 74.5251 11.0425C74.703 10.9425 74.9142 10.9425 75.0921 11.0425C75.1699 11.087 75.2144 11.1648 75.2144 11.2427V17.6794C75.2144 17.7684 75.1699 17.8462 75.0921 17.8907C75.0031 17.9462 74.9142 17.9685 74.8141 17.9685C74.5918 17.9574 74.3917 17.8128 74.3139 17.6016L71.8014 12.7879V17.6794C71.8014 17.7684 71.757 17.8462 71.6902 17.8907C71.5124 17.9907 71.3012 17.9907 71.1233 17.8907C71.0455 17.8462 71.001 17.7684 71.001 17.6794V11.2427C71.001 11.0537 71.1344 10.9647 71.4012 10.9647ZM28.1002 10.9647H29.9123C30.4459 10.9425 30.9795 11.1204 31.3909 11.465C31.7577 11.7985 31.9467 12.321 31.9467 13.0325V13.1214C31.9467 13.8329 31.7577 14.3666 31.3798 14.7001C30.9573 15.0447 30.4237 15.2337 29.879 15.2003H28.5894V17.6794C28.5894 17.7684 28.5449 17.8462 28.4671 17.8907C28.2892 17.9907 28.078 17.9907 27.9001 17.8907C27.8223 17.8462 27.7778 17.7684 27.7778 17.6794V11.2427C27.7778 11.1648 27.8112 11.0981 27.8668 11.0425C27.9335 10.987 28.0113 10.9536 28.1002 10.9647ZM52.4244 10.9647C52.5133 10.9647 52.5911 10.9981 52.6356 11.0759C52.6912 11.1426 52.7134 11.2315 52.7134 11.3205C52.7134 11.4094 52.6912 11.5095 52.6356 11.5873C52.5911 11.6651 52.5133 11.6985 52.4244 11.6985H50.9013V17.6794C50.9013 17.7684 50.8569 17.8462 50.779 17.8907C50.6012 17.9907 50.3899 17.9907 50.2121 17.8907C50.1343 17.8462 50.0898 17.7684 50.0898 17.6794V11.6985H48.5445C48.4556 11.6985 48.3778 11.6651 48.3333 11.5873C48.2777 11.5095 48.2444 11.4205 48.2444 11.3205C48.2444 11.2315 48.2666 11.1426 48.3222 11.0759C48.3666 10.9981 48.4445 10.9647 48.5334 10.9647H52.4244ZM36.816 11.6873C35.9822 11.6873 35.5709 12.132 35.5709 13.0436L35.5598 15.9341C35.5598 16.8345 35.9711 17.2903 36.816 17.2903C37.1606 17.3126 37.4941 17.1903 37.7498 16.9568C37.9944 16.6789 38.1056 16.312 38.0834 15.9341V13.0436C38.1167 12.6768 37.9944 12.3099 37.7498 12.0209C37.4941 11.7874 37.1606 11.6651 36.816 11.6873ZM65.776 12.1431L64.6976 15.7228H66.8432L65.776 12.1431ZM29.879 11.6985H28.5894L28.5783 14.5333H29.879C30.2236 14.5555 30.5682 14.4333 30.8128 14.1887C31.0574 13.9108 31.1797 13.5439 31.1463 13.1659V13.0547C31.1797 12.6879 31.0574 12.321 30.8128 12.032C30.5571 11.7985 30.2236 11.6762 29.879 11.6985Z" fill="#393737"/>
<path d="M23.5422 14.7856C24.2508 9.23814 20.3331 4.16643 14.7958 3.45781C9.25839 2.74919 4.16643 6.66686 3.45781 12.2042C2.74919 17.7416 6.66686 22.8234 12.2042 23.5422C17.7517 24.2508 22.8234 20.3331 23.5422 14.7856Z" fill="#FF6C37"/>
<path d="M17.1544 9.87612L12.8824 14.1481L11.6777 12.9434C15.8789 8.74233 16.2939 9.10676 17.1544 9.87612Z" fill="white"/>
<path d="M12.8824 14.2492C12.852 14.2492 12.8318 14.2391 12.8116 14.2188L11.5968 13.0142C11.5563 12.9737 11.5563 12.9129 11.5968 12.8725C15.8688 8.60047 16.3142 9.0054 17.2151 9.81525C17.2354 9.8355 17.2455 9.85575 17.2455 9.88612C17.2455 9.91649 17.2354 9.93673 17.2151 9.95698L12.9432 14.2188C12.933 14.2391 12.9027 14.2492 12.8824 14.2492ZM11.8195 12.9433L12.8824 14.0062L17.0026 9.88612C16.2534 9.21799 15.7473 9.01552 11.8195 12.9433Z" fill="#FF6C37"/>
<path d="M14.107 15.3729L12.9429 14.2087L17.2149 9.93677C18.3588 11.0908 16.648 12.9636 14.107 15.3729Z" fill="white"/>
<path d="M14.1073 15.4741C14.077 15.4741 14.0567 15.4639 14.0365 15.4437L12.8723 14.2795C12.8521 14.2593 12.8521 14.239 12.8521 14.2087C12.8521 14.1783 12.8622 14.158 12.8824 14.1378L17.1544 9.86582C17.1949 9.82533 17.2556 9.82533 17.2961 9.86582C17.5593 10.1088 17.7011 10.453 17.6909 10.8073C17.6707 11.9309 16.3952 13.3583 14.1883 15.4437C14.1579 15.4639 14.1276 15.4741 14.1073 15.4741ZM13.0849 14.2087C13.7328 14.8667 14.0061 15.1299 14.1073 15.2311C15.808 13.6114 17.4581 11.9512 17.4682 10.8073C17.4783 10.5441 17.3771 10.2809 17.205 10.0784L13.0849 14.2087Z" fill="#FF6C37"/>
<path d="M11.698 12.9737L12.5584 13.8342C12.5787 13.8544 12.5787 13.8746 12.5584 13.8949C12.5483 13.905 12.5483 13.905 12.5382 13.905L10.7565 14.2897C10.6654 14.2998 10.5844 14.2391 10.5642 14.148C10.554 14.0974 10.5743 14.0467 10.6046 14.0164L11.6372 12.9838C11.6575 12.9636 11.6878 12.9534 11.698 12.9737Z" fill="white"/>
<path d="M10.7261 14.3909C10.5742 14.3909 10.4629 14.2694 10.4629 14.1176C10.4629 14.0467 10.4933 13.9759 10.5439 13.9253L11.5764 12.8927C11.6372 12.8421 11.7182 12.8421 11.7789 12.8927L12.6394 13.7532C12.7001 13.8038 12.7001 13.8949 12.6394 13.9556C12.6191 13.9759 12.5989 13.986 12.5685 13.9961L10.7868 14.3808C10.7666 14.3808 10.7463 14.3909 10.7261 14.3909ZM11.6675 13.085L10.6755 14.0771C10.6552 14.0974 10.6451 14.1277 10.6654 14.1581C10.6755 14.1885 10.7058 14.1986 10.7362 14.1885L12.4065 13.824L11.6675 13.085Z" fill="#FF6C37"/>
<path d="M19.4116 7.50722C18.7637 6.87959 17.721 6.89983 17.0934 7.55784C16.4658 8.21585 16.486 9.24841 17.144 9.87605C17.6805 10.3923 18.4904 10.4834 19.1282 10.0988L17.9741 8.94471L19.4116 7.50722Z" fill="white"/>
<path d="M18.2778 10.4328C17.3161 10.4328 16.5366 9.65333 16.5366 8.69163C16.5366 7.72992 17.3161 6.95044 18.2778 6.95044C18.7232 6.95044 19.1585 7.12253 19.4825 7.43635C19.5027 7.4566 19.5128 7.47684 19.5128 7.50721C19.5128 7.53758 19.5027 7.55783 19.4825 7.57808L18.1158 8.94471L19.1889 10.0178C19.2294 10.0583 19.2294 10.119 19.1889 10.1595C19.1788 10.1696 19.1788 10.1696 19.1686 10.1797C18.9054 10.3417 18.5916 10.4328 18.2778 10.4328ZM18.2778 7.16303C17.4275 7.16303 16.7391 7.8514 16.7492 8.70175C16.7492 9.5521 17.4376 10.2405 18.2879 10.2303C18.5208 10.2303 18.7536 10.1797 18.9662 10.0684L17.9032 9.01557C17.883 8.99532 17.8729 8.97507 17.8729 8.94471C17.8729 8.91434 17.883 8.89409 17.9032 8.87384L19.2598 7.51734C18.9864 7.2845 18.6422 7.16303 18.2778 7.16303Z" fill="#FF6C37"/>
<path d="M19.442 7.53758L19.4217 7.51733L17.9741 8.9447L19.118 10.0886C19.2294 10.0178 19.3408 9.93677 19.4319 9.84566C20.0797 9.2079 20.0797 8.17534 19.442 7.53758Z" fill="white"/>
<path d="M19.1283 10.2C19.098 10.2 19.0777 10.1899 19.0575 10.1696L17.9034 9.01559C17.8832 8.99534 17.873 8.9751 17.873 8.94473C17.873 8.91436 17.8832 8.89411 17.9034 8.87387L19.3409 7.43638C19.3814 7.39588 19.4421 7.39588 19.4826 7.43638L19.513 7.45662C20.1913 8.13487 20.1913 9.22818 19.5231 9.91655C19.4219 10.0178 19.3105 10.1089 19.1891 10.1798C19.1587 10.1899 19.1384 10.2 19.1283 10.2ZM18.116 8.94473L19.1384 9.96717C19.2194 9.91655 19.3004 9.84569 19.3612 9.78495C19.9382 9.20793 19.9685 8.26648 19.4118 7.65909L18.116 8.94473Z" fill="#FF6C37"/>
<path d="M17.3265 10.0582C17.0836 9.81524 16.6888 9.81524 16.4458 10.0582L12.6294 13.8746L13.2672 14.5124L17.3063 10.9693C17.5695 10.7466 17.5897 10.3518 17.367 10.0886C17.3468 10.0784 17.3367 10.0683 17.3265 10.0582Z" fill="white"/>
<path d="M13.2571 14.6138C13.2267 14.6138 13.2064 14.6037 13.1862 14.5834L12.5484 13.9457C12.5079 13.9052 12.5079 13.8444 12.5484 13.8039L16.3649 9.98749C16.6483 9.70404 17.1039 9.70404 17.3873 9.98749C17.6708 10.2709 17.6708 10.7265 17.3873 11.0099C17.3772 11.0201 17.3671 11.0302 17.3569 11.0403L13.3178 14.5834C13.3077 14.6037 13.2874 14.6138 13.2571 14.6138ZM12.7711 13.8748L13.2672 14.3708L17.2355 10.8885C17.4582 10.7062 17.4784 10.3722 17.2962 10.1495C17.114 9.92675 16.7799 9.9065 16.5572 10.0887C16.5471 10.0988 16.537 10.109 16.5167 10.1191L12.7711 13.8748Z" fill="#FF6C37"/>
<path d="M9.7038 18.2176C9.66331 18.2379 9.64307 18.2784 9.65319 18.3189L9.82528 19.0477C9.86578 19.149 9.80504 19.2705 9.69368 19.3008C9.6127 19.3312 9.52159 19.3008 9.47097 19.2401L8.35742 18.1367L11.9916 14.5024L13.2469 14.5227L14.0973 15.373C13.8948 15.5451 12.6699 16.7295 9.7038 18.2176Z" fill="white"/>
<path d="M9.62275 19.402C9.54176 19.402 9.46078 19.3716 9.41016 19.3109L8.30674 18.2074C8.28649 18.1872 8.27637 18.1669 8.27637 18.1366C8.27637 18.1062 8.28649 18.086 8.30674 18.0657L11.941 14.4315C11.9612 14.4112 11.9916 14.4011 12.0118 14.4011L13.2671 14.4214C13.2975 14.4214 13.3177 14.4315 13.338 14.4517L14.1883 15.3021C14.2085 15.3223 14.2187 15.3527 14.2187 15.3831C14.2187 15.4134 14.2085 15.4337 14.1782 15.4539L14.1073 15.5147C13.0343 16.4561 11.5765 17.3976 9.76447 18.2985L9.93657 19.0173C9.96694 19.1489 9.9062 19.2906 9.78472 19.3615C9.72398 19.3918 9.67337 19.402 9.62275 19.402ZM8.5092 18.1366L9.55189 19.1691C9.58226 19.2198 9.643 19.24 9.69361 19.2096C9.74423 19.1793 9.76447 19.1185 9.7341 19.0679L9.56201 18.339C9.54176 18.2479 9.58226 18.1669 9.66324 18.1265C11.455 17.2255 12.9027 16.2942 13.9656 15.3729L13.2165 14.6238L12.0523 14.6036L8.5092 18.1366Z" fill="#FF6C37"/>
<path d="M7.49667 19.0071L8.36726 18.1365L9.66303 19.4322L7.5979 19.2905C7.50679 19.2804 7.44605 19.1994 7.45618 19.1083C7.45618 19.0678 7.4663 19.0273 7.49667 19.0071Z" fill="white"/>
<path d="M9.66314 19.5234L7.58789 19.3817C7.43604 19.3715 7.33481 19.2399 7.34493 19.0881C7.35506 19.0273 7.3753 18.9666 7.42592 18.9261L8.29651 18.0555C8.33701 18.015 8.39774 18.015 8.43824 18.0555L9.734 19.3513C9.76437 19.3817 9.7745 19.4221 9.75425 19.4626C9.734 19.5031 9.70363 19.5234 9.66314 19.5234ZM8.36737 18.2782L7.56764 19.078C7.53727 19.0982 7.53727 19.1488 7.56764 19.1691C7.57777 19.1792 7.58789 19.1893 7.60814 19.1893L9.39994 19.3108L8.36737 18.2782Z" fill="#FF6C37"/>
<path d="M11.6374 14.9681C11.5766 14.9681 11.5361 14.9175 11.5361 14.8669C11.5361 14.8365 11.5463 14.8163 11.5665 14.796L12.5485 13.8141C12.5889 13.7736 12.6497 13.7736 12.6902 13.8141L13.3279 14.4518C13.3583 14.4822 13.3684 14.5126 13.3583 14.5531C13.3482 14.5834 13.3178 14.6138 13.2773 14.6239L11.6576 14.9681C11.6475 14.9681 11.6374 14.9681 11.6374 14.9681ZM12.6193 14.0266L11.9512 14.6948L13.0445 14.4619L12.6193 14.0266Z" fill="#FF6C37"/>
<path d="M13.2467 14.5227L12.1331 14.7656C12.0521 14.7859 11.9712 14.7352 11.9509 14.6543C11.9408 14.6036 11.9509 14.553 11.9914 14.5125L12.6089 13.895L13.2467 14.5227Z" fill="white"/>
<path d="M12.1129 14.8669C11.9712 14.8669 11.8599 14.7555 11.8599 14.6138C11.8599 14.5429 11.8902 14.4822 11.9307 14.4316L12.5482 13.8141C12.5887 13.7736 12.6495 13.7736 12.69 13.8141L13.3277 14.4518C13.3581 14.4822 13.3682 14.5126 13.3581 14.5531C13.348 14.5834 13.3176 14.6138 13.2771 14.6239L12.1636 14.8669C12.1433 14.8669 12.1231 14.8669 12.1129 14.8669ZM12.6191 14.0266L12.0724 14.5733C12.0522 14.5935 12.0522 14.6138 12.0623 14.634C12.0724 14.6543 12.0927 14.6644 12.1231 14.6644L13.0544 14.4619L12.6191 14.0266Z" fill="#FF6C37"/>
<path d="M19.4522 8.50948C19.432 8.44874 19.3611 8.41837 19.3003 8.43862C19.2396 8.45887 19.2092 8.52973 19.2295 8.59047C19.2295 8.60059 19.2396 8.61071 19.2396 8.62084C19.3003 8.74231 19.2801 8.89416 19.1991 9.00552C19.1586 9.05613 19.1687 9.127 19.2092 9.16749C19.2599 9.20798 19.3307 9.19786 19.3712 9.14724C19.5231 8.9549 19.5534 8.71195 19.4522 8.50948Z" fill="#FF6C37"/>
</svg>
