<svg width="116" height="27" viewBox="0 0 116 27" fill="none" xmlns="http://www.w3.org/2000/svg">
<path d="M26.5372 13.6276C26.5372 12.5735 26.7726 11.6321 27.2433 10.8032C27.7243 9.96408 28.3741 9.31427 29.1928 8.85377C30.0217 8.38304 30.9478 8.14768 31.9711 8.14768C33.1684 8.14768 34.2173 8.45468 35.1178 9.06867C36.0183 9.68266 36.6477 10.532 37.0058 11.6167H34.5345C34.2889 11.1051 33.941 10.7213 33.4907 10.4655C33.0507 10.2097 32.539 10.0818 31.9557 10.0818C31.3315 10.0818 30.7738 10.2301 30.2826 10.5269C29.8016 10.8134 29.423 11.2228 29.1467 11.7549C28.8806 12.287 28.7476 12.9112 28.7476 13.6276C28.7476 14.3337 28.8806 14.9579 29.1467 15.5002C29.423 16.0324 29.8016 16.4468 30.2826 16.7436C30.7738 17.0301 31.3315 17.1734 31.9557 17.1734C32.539 17.1734 33.0507 17.0455 33.4907 16.7896C33.941 16.5236 34.2889 16.1347 34.5345 15.623H37.0058C36.6477 16.718 36.0183 17.5725 35.1178 18.1865C34.2275 18.7902 33.1786 19.0921 31.9711 19.0921C30.9478 19.0921 30.0217 18.8619 29.1928 18.4014C28.3741 17.9306 27.7243 17.2808 27.2433 16.4519C26.7726 15.623 26.5372 14.6816 26.5372 13.6276ZM42.6174 19.1381C41.7987 19.1381 41.0619 18.9591 40.407 18.6009C39.7521 18.2325 39.2353 17.7157 38.8567 17.0506C38.4883 16.3854 38.3041 15.6179 38.3041 14.7481C38.3041 13.8783 38.4934 13.1108 38.872 12.4456C39.2609 11.7805 39.7879 11.2688 40.453 10.9106C41.1182 10.5423 41.8601 10.3581 42.6788 10.3581C43.4974 10.3581 44.2393 10.5423 44.9045 10.9106C45.5697 11.2688 46.0915 11.7805 46.4702 12.4456C46.859 13.1108 47.0535 13.8783 47.0535 14.7481C47.0535 15.6179 46.8539 16.3854 46.4548 17.0506C46.066 17.7157 45.5338 18.2325 44.8584 18.6009C44.1933 18.9591 43.4463 19.1381 42.6174 19.1381ZM42.6174 17.2655C43.0062 17.2655 43.3695 17.1734 43.7072 16.9892C44.0551 16.7947 44.3314 16.5082 44.5361 16.1296C44.7408 15.751 44.8431 15.2905 44.8431 14.7481C44.8431 13.9397 44.6282 13.3206 44.1984 12.8908C43.7788 12.4507 43.2621 12.2307 42.6481 12.2307C42.0341 12.2307 41.5173 12.4507 41.0977 12.8908C40.6884 13.3206 40.4837 13.9397 40.4837 14.7481C40.4837 15.5565 40.6833 16.1808 41.0824 16.6208C41.4917 17.0506 42.0034 17.2655 42.6174 17.2655ZM53.3422 10.3734C54.3553 10.3734 55.174 10.6957 55.7982 11.3404C56.4224 11.9749 56.7345 12.8652 56.7345 14.0113V19H54.5856V14.303C54.5856 13.6276 54.4167 13.1108 54.079 12.7526C53.7413 12.3842 53.2808 12.2 52.6975 12.2C52.104 12.2 51.6333 12.3842 51.2853 12.7526C50.9476 13.1108 50.7788 13.6276 50.7788 14.303V19H48.6298V10.4962H50.7788V11.5553C51.0653 11.1869 51.4286 10.9004 51.8686 10.6958C52.3189 10.4809 52.8101 10.3734 53.3422 10.3734ZM62.6769 12.2614H61.188V19H59.0083V12.2614H58.0413V10.4962H59.0083V10.0664C59.0083 9.02262 59.3051 8.25513 59.8986 7.76394C60.4922 7.27274 61.3876 7.04249 62.5848 7.07319V8.88447C62.0629 8.87424 61.6997 8.96122 61.495 9.14542C61.2903 9.32962 61.188 9.6622 61.188 10.1432V10.4962H62.6769V12.2614ZM66.2186 7.64114V19H64.0696V7.64114H66.2186ZM76.3697 10.4962V19H74.2054V17.9255C73.9291 18.2939 73.5658 18.5856 73.1155 18.8005C72.6755 19.0051 72.1945 19.1074 71.6727 19.1074C71.0075 19.1074 70.4191 18.9693 69.9074 18.693C69.3958 18.4065 68.9916 17.992 68.6948 17.4497C68.4083 16.8971 68.265 16.2421 68.265 15.4849V10.4962H70.414V15.1779C70.414 15.8533 70.5828 16.3752 70.9205 16.7436C71.2582 17.1017 71.7187 17.2808 72.302 17.2808C72.8955 17.2808 73.3611 17.1017 73.6988 16.7436C74.0365 16.3752 74.2054 15.8533 74.2054 15.1779V10.4962H76.3697ZM86.3952 14.5639C86.3952 14.8709 86.3747 15.1472 86.3338 15.3928H80.1171C80.1683 16.0068 80.3832 16.4877 80.7618 16.8357C81.1404 17.1836 81.606 17.3576 82.1586 17.3576C82.9568 17.3576 83.5247 17.0148 83.8624 16.3291H86.1803C85.9347 17.1478 85.4639 17.8232 84.7681 18.3553C84.0722 18.8772 83.2178 19.1381 82.2047 19.1381C81.386 19.1381 80.6492 18.9591 79.9943 18.6009C79.3496 18.2325 78.8431 17.7157 78.4747 17.0506C78.1165 16.3854 77.9374 15.6179 77.9374 14.7481C77.9374 13.868 78.1165 13.0954 78.4747 12.4303C78.8328 11.7651 79.3342 11.2535 79.9789 10.8953C80.6236 10.5371 81.3655 10.3581 82.2047 10.3581C83.0131 10.3581 83.7345 10.532 84.369 10.8799C85.0137 11.2279 85.51 11.7242 85.8579 12.3689C86.2161 13.0033 86.3952 13.735 86.3952 14.5639ZM84.1694 13.9499C84.1592 13.3973 83.9597 12.9573 83.5708 12.6298C83.1819 12.2921 82.7061 12.1233 82.1433 12.1233C81.6111 12.1233 81.1609 12.287 80.7925 12.6145C80.4343 12.9317 80.2143 13.3769 80.1324 13.9499H84.1694ZM92.6761 10.3734C93.6892 10.3734 94.5079 10.6957 95.1321 11.3404C95.7563 11.9749 96.0684 12.8652 96.0684 14.0113V19H93.9195V14.303C93.9195 13.6276 93.7506 13.1108 93.4129 12.7526C93.0752 12.3842 92.6147 12.2 92.0314 12.2C91.4379 12.2 90.9672 12.3842 90.6192 12.7526C90.2815 13.1108 90.1127 13.6276 90.1127 14.303V19H87.9637V10.4962H90.1127V11.5553C90.3992 11.1869 90.7625 10.9004 91.2025 10.6958C91.6528 10.4809 92.144 10.3734 92.6761 10.3734ZM97.5594 14.7481C97.5594 13.868 97.7385 13.1006 98.0966 12.4456C98.4548 11.7805 98.9511 11.2688 99.5856 10.9106C100.22 10.5423 100.947 10.3581 101.765 10.3581C102.819 10.3581 103.689 10.6241 104.375 11.1562C105.071 11.6781 105.536 12.4149 105.772 13.3666H103.454C103.331 12.9982 103.121 12.7117 102.824 12.507C102.538 12.2921 102.18 12.1847 101.75 12.1847C101.136 12.1847 100.65 12.4098 100.292 12.8601C99.9335 13.3001 99.7544 13.9294 99.7544 14.7481C99.7544 15.5565 99.9335 16.1859 100.292 16.6361C100.65 17.0762 101.136 17.2962 101.75 17.2962C102.62 17.2962 103.188 16.9073 103.454 16.1296H105.772C105.536 17.0506 105.071 17.7822 104.375 18.3246C103.679 18.867 102.809 19.1381 101.765 19.1381C100.947 19.1381 100.22 18.9591 99.5856 18.6009C98.9511 18.2325 98.4548 17.7208 98.0966 17.0659C97.7385 16.4008 97.5594 15.6282 97.5594 14.7481ZM115.251 14.5639C115.251 14.8709 115.231 15.1472 115.19 15.3928H108.973C109.024 16.0068 109.239 16.4877 109.618 16.8357C109.996 17.1836 110.462 17.3576 111.014 17.3576C111.813 17.3576 112.381 17.0148 112.718 16.3291H115.036C114.791 17.1478 114.32 17.8232 113.624 18.3553C112.928 18.8772 112.074 19.1381 111.061 19.1381C110.242 19.1381 109.505 18.9591 108.85 18.6009C108.205 18.2325 107.699 17.7157 107.331 17.0506C106.972 16.3854 106.793 15.6179 106.793 14.7481C106.793 13.868 106.972 13.0954 107.331 12.4303C107.689 11.7651 108.19 11.2535 108.835 10.8953C109.479 10.5371 110.221 10.3581 111.061 10.3581C111.869 10.3581 112.59 10.532 113.225 10.8799C113.87 11.2279 114.366 11.7242 114.714 12.3689C115.072 13.0033 115.251 13.735 115.251 14.5639ZM113.025 13.9499C113.015 13.3973 112.816 12.9573 112.427 12.6298C112.038 12.2921 111.562 12.1233 110.999 12.1233C110.467 12.1233 110.017 12.287 109.648 12.6145C109.29 12.9317 109.07 13.3769 108.988 13.9499H113.025Z" fill="#393737"/>
<path d="M5.15274 18.0557C4.96657 18.3593 4.7575 18.7116 4.57993 18.9923C4.42099 19.2608 4.50631 19.6072 4.77182 19.7713L8.49508 22.0625C8.62577 22.1432 8.7834 22.168 8.93257 22.1314C9.08174 22.0948 9.20995 21.9998 9.28842 21.8678C9.43735 21.6186 9.62924 21.295 9.83832 20.9484C11.3133 18.514 12.7969 18.8118 15.4719 20.0892L19.1637 21.8448C19.3035 21.9114 19.4643 21.9185 19.6094 21.8645C19.7546 21.8106 19.8717 21.7002 19.9341 21.5584L21.7069 17.5488C21.8322 17.2624 21.7047 16.9285 21.4205 16.7984C20.6415 16.4318 19.0921 15.7015 17.6973 15.0284C12.6795 12.5911 8.41489 12.7486 5.15274 18.0557Z" fill="url(#paint0_linear_430_355)"/>
<path d="M21.8472 8.95657C22.0333 8.65298 22.2424 8.3007 22.42 8.02003C22.5789 7.75144 22.4936 7.40504 22.2281 7.241L18.5048 4.94977C18.3731 4.86102 18.2104 4.83098 18.0556 4.86682C17.9009 4.90266 17.7679 5.00116 17.6886 5.13879C17.5397 5.38797 17.3478 5.7116 17.1387 6.05815C15.6637 8.49259 14.1801 8.19473 11.5051 6.91737L7.82481 5.1703C7.68499 5.10375 7.52418 5.09664 7.37904 5.1506C7.23389 5.20456 7.11678 5.31498 7.05438 5.4567L5.28154 9.46637C5.15628 9.75274 5.28373 10.0867 5.56794 10.2167C6.34696 10.5833 7.89641 11.3137 9.2912 11.9867C14.3205 14.4212 18.585 14.2579 21.8472 8.95657Z" fill="url(#paint1_linear_430_355)"/>
<defs>
<linearGradient id="paint0_linear_430_355" x1="28.0733" y1="20.4266" x2="23.9038" y2="10.8613" gradientUnits="userSpaceOnUse">
<stop offset="0.18" stop-color="#0052CC"/>
<stop offset="1" stop-color="#2684FF"/>
</linearGradient>
<linearGradient id="paint1_linear_430_355" x1="1418.38" y1="-14014.4" x2="1369.84" y2="-14236.5" gradientUnits="userSpaceOnUse">
<stop offset="0.18" stop-color="#0052CC"/>
<stop offset="1" stop-color="#2684FF"/>
</linearGradient>
</defs>
</svg>
