<svg width="28" height="27" viewBox="0 0 28 27" fill="none" xmlns="http://www.w3.org/2000/svg">
<path d="M14.4227 23.6249L8.56391 21.9984L7.2583 7.35449H21.6047L20.2977 21.9962L14.4227 23.6249Z" fill="#264DE4"/>
<path d="M19.1789 21.064L20.2958 8.552H14.4316V22.3801L19.1789 21.064Z" fill="#2965F1"/>
<path d="M10.2515 13.9834L10.4124 15.7794H14.4316V13.9834H10.2515Z" fill="#EBEBEB"/>
<path d="M9.92822 10.3481L10.0915 12.1442H14.4318V10.3481H9.92822Z" fill="#EBEBEB"/>
<path d="M14.4311 18.6477L14.4232 18.6498L12.423 18.1097L12.2951 16.6772H10.4922L10.7438 19.4973L14.4228 20.5186L14.4311 20.5163V18.6477Z" fill="#EBEBEB"/>
<path d="M10.6343 3.375H12.8096V4.28467H11.5439V5.19434H12.8096V6.104H10.6343V3.375Z" fill="black"/>
<path d="M13.2446 3.375H15.4199V4.16602H14.1543V4.32422H15.4199V6.14355H13.2446V5.31299H14.5103V5.15479H13.2446V3.375Z" fill="black"/>
<path d="M15.8555 3.375H18.0308V4.16602H16.7651V4.32422H18.0308V6.14355H15.8555V5.31299H17.1211V5.15479H15.8555V3.375Z" fill="black"/>
<path d="M18.6001 13.9833L18.9244 10.3481H14.4253V12.1442H16.9561L16.7926 13.9833H14.4253V15.7793H16.6369L16.4284 18.1086L14.4253 18.6493V20.5178L18.1072 19.4974L18.1342 19.194L18.5563 14.4656L18.6001 13.9833Z" fill="white"/>
</svg>
