<svg width="38" height="37" viewBox="0 0 38 37" fill="none" xmlns="http://www.w3.org/2000/svg">
<path d="M19.4195 32.3751L11.3907 30.1463L9.60156 10.0786H29.2615L27.4704 30.1431L19.4195 32.3751Z" fill="#264DE4"/>
<path d="M25.9372 28.8655L27.4678 11.7195H19.4316V30.6691L25.9372 28.8655Z" fill="#2965F1"/>
<path d="M13.7036 19.1624L13.9242 21.6235H19.4319V19.1624H13.7036Z" fill="#EBEBEB"/>
<path d="M13.2598 14.1809L13.4835 16.6421H19.4313V14.1809H13.2598Z" fill="#EBEBEB"/>
<path d="M19.4319 25.5545L19.4211 25.5573L16.6801 24.8172L16.5049 22.8542H14.0342L14.379 26.7187L19.4206 28.1183L19.4319 28.1151V25.5545Z" fill="#EBEBEB"/>
<path d="M14.229 4.62524H17.21V5.87183H15.4756V7.11841H17.21V8.36499H14.229V4.62524Z" fill="black"/>
<path d="M17.8057 4.62524H20.7866V5.70923H19.0522V5.92603H20.7866V8.41919H17.8057V7.28101H19.54V7.06421H17.8057V4.62524Z" fill="black"/>
<path d="M21.3828 4.62524H24.3638V5.70923H22.6294V5.92603H24.3638V8.41919H21.3828V7.28101H23.1172V7.06421H21.3828V4.62524Z" fill="black"/>
<path d="M25.1444 19.1625L25.5887 14.1809H19.4233V16.6421H22.8914L22.6675 19.1625H19.4233V21.6237H22.4541L22.1684 24.8157L19.4233 25.5566V28.1172L24.469 26.7188L24.506 26.3029L25.0843 19.8234L25.1444 19.1625Z" fill="white"/>
</svg>
