<svg width="37" height="37" viewBox="0 0 37 37" fill="none" xmlns="http://www.w3.org/2000/svg">
<g clip-path="url(#clip0_430_334)">
<path d="M18.5005 18.5C18.5005 17.2734 18.9878 16.097 19.8551 15.2296C20.7225 14.3623 21.8989 13.875 23.1255 13.875C24.3521 13.875 25.5285 14.3623 26.3959 15.2296C27.2632 16.097 27.7505 17.2734 27.7505 18.5C27.7505 19.7266 27.2632 20.903 26.3959 21.7704C25.5285 22.6377 24.3521 23.125 23.1255 23.125C21.8989 23.125 20.7225 22.6377 19.8551 21.7704C18.9878 20.903 18.5005 19.7266 18.5005 18.5V18.5Z" fill="#1ABCFE"/>
<path d="M9.25049 27.75C9.25049 26.5234 9.73776 25.347 10.6051 24.4796C11.4725 23.6123 12.6489 23.125 13.8755 23.125H18.5005V27.75C18.5005 28.9766 18.0132 30.153 17.1459 31.0204C16.2785 31.8877 15.1021 32.375 13.8755 32.375C12.6489 32.375 11.4725 31.8877 10.6051 31.0204C9.73776 30.153 9.25049 28.9766 9.25049 27.75V27.75Z" fill="#0ACF83"/>
<path d="M18.5005 4.62524V13.8752H23.1255C24.3521 13.8752 25.5285 13.388 26.3959 12.5206C27.2632 11.6533 27.7505 10.4769 27.7505 9.25024C27.7505 8.02362 27.2632 6.84723 26.3959 5.97988C25.5285 5.11252 24.3521 4.62524 23.1255 4.62524H18.5005Z" fill="#FF7262"/>
<path d="M9.25049 9.25024C9.25049 10.4769 9.73776 11.6533 10.6051 12.5206C11.4725 13.388 12.6489 13.8752 13.8755 13.8752H18.5005V4.62524H13.8755C12.6489 4.62524 11.4725 5.11252 10.6051 5.97988C9.73776 6.84723 9.25049 8.02362 9.25049 9.25024V9.25024Z" fill="#F24E1E"/>
<path d="M9.25049 18.5C9.25049 19.7266 9.73776 20.903 10.6051 21.7704C11.4725 22.6377 12.6489 23.125 13.8755 23.125H18.5005V13.875H13.8755C12.6489 13.875 11.4725 14.3623 10.6051 15.2296C9.73776 16.097 9.25049 17.2734 9.25049 18.5V18.5Z" fill="#A259FF"/>
</g>
<defs>
<clipPath id="clip0_430_334">
<rect width="18.5" height="27.75" fill="white" transform="translate(9.25049 4.62524)"/>
</clipPath>
</defs>
</svg>
