<svg width="28" height="28" viewBox="0 0 28 28" fill="none" xmlns="http://www.w3.org/2000/svg">
<g clip-path="url(#clip0_430_334)">
<path d="M13.9922 13.6062C13.9922 12.7111 14.3478 11.8527 14.9807 11.2197C15.6136 10.5868 16.4721 10.2312 17.3672 10.2312C18.2623 10.2312 19.1207 10.5868 19.7537 11.2197C20.3866 11.8527 20.7422 12.7111 20.7422 13.6062C20.7422 14.5013 20.3866 15.3598 19.7537 15.9927C19.1207 16.6256 18.2623 16.9812 17.3672 16.9812C16.4721 16.9812 15.6136 16.6256 14.9807 15.9927C14.3478 15.3598 13.9922 14.5013 13.9922 13.6062V13.6062Z" fill="#1ABCFE"/>
<path d="M7.24219 20.356C7.24219 19.4609 7.59777 18.6024 8.2307 17.9695C8.86364 17.3365 9.72208 16.981 10.6172 16.981H13.9922V20.356C13.9922 21.2511 13.6366 22.1095 13.0037 22.7424C12.3707 23.3754 11.5123 23.731 10.6172 23.731C9.72208 23.731 8.86364 23.3754 8.2307 22.7424C7.59777 22.1095 7.24219 21.2511 7.24219 20.356V20.356Z" fill="#0ACF83"/>
<path d="M13.9922 3.48096V10.231H17.3672C18.2623 10.231 19.1207 9.87538 19.7537 9.24244C20.3866 8.60951 20.7422 7.75106 20.7422 6.85596C20.7422 5.96085 20.3866 5.10241 19.7537 4.46947C19.1207 3.83654 18.2623 3.48096 17.3672 3.48096L13.9922 3.48096Z" fill="#FF7262"/>
<path d="M7.24219 6.85596C7.24219 7.75106 7.59777 8.60951 8.2307 9.24244C8.86364 9.87538 9.72208 10.231 10.6172 10.231H13.9922V3.48096H10.6172C9.72208 3.48096 8.86364 3.83654 8.2307 4.46947C7.59777 5.10241 7.24219 5.96085 7.24219 6.85596V6.85596Z" fill="#F24E1E"/>
<path d="M7.24219 13.6062C7.24219 14.5013 7.59777 15.3598 8.2307 15.9927C8.86364 16.6256 9.72208 16.9812 10.6172 16.9812H13.9922V10.2312H10.6172C9.72208 10.2312 8.86364 10.5868 8.2307 11.2197C7.59777 11.8527 7.24219 12.7111 7.24219 13.6062V13.6062Z" fill="#A259FF"/>
</g>
<defs>
<clipPath id="clip0_430_334">
<rect width="13.5" height="20.25" fill="white" transform="translate(7.24219 3.48096)"/>
</clipPath>
</defs>
</svg>
