<svg width="64" height="18" viewBox="0 0 64 18" fill="none" xmlns="http://www.w3.org/2000/svg">
<path d="M35.5393 12.7182H35.5184C35.5278 12.7182 35.5341 12.7286 35.5435 12.7297H35.5497L35.5393 12.7193V12.7182ZM35.5435 12.7297C35.4465 12.7307 35.2026 12.7818 34.9452 12.7818C34.1322 12.7818 33.8507 12.4066 33.8507 11.9167V8.65317H35.508C35.6018 8.65317 35.6748 8.56978 35.6748 8.45512V6.68318C35.6748 6.58937 35.5914 6.50599 35.508 6.50599H33.8507V4.30669C33.8507 4.22331 33.7986 4.17119 33.7048 4.17119H31.4534C31.3596 4.17119 31.3075 4.22331 31.3075 4.30669V6.56853C31.3075 6.56853 30.1713 6.84995 30.0984 6.86038C30.015 6.88122 29.9629 6.95418 29.9629 7.03757V8.45512C29.9629 8.56978 30.0463 8.65317 30.1401 8.65317H31.297V12.072C31.297 14.6152 33.069 14.8758 34.2781 14.8758C34.8305 14.8758 35.4976 14.6986 35.6018 14.6465C35.6644 14.6257 35.6956 14.5527 35.6956 14.4797V12.9163C35.6971 12.8719 35.6825 12.8285 35.6545 12.7941C35.6266 12.7596 35.5871 12.7364 35.5435 12.7286V12.7297ZM60.2423 10.4355C60.2423 8.54893 59.4814 8.29878 58.6788 8.38216C58.0534 8.42385 57.5531 8.73655 57.5531 8.73655V12.4055C57.5531 12.4055 58.0638 12.7599 58.8247 12.7808C59.8983 12.812 60.2423 12.4264 60.2423 10.4355ZM62.7751 10.2688C62.7751 13.8439 61.6181 14.8654 59.596 14.8654C57.8866 14.8654 56.9694 14.0003 56.9694 14.0003C56.9694 14.0003 56.9277 14.4797 56.8756 14.5423C56.8443 14.6048 56.7922 14.6257 56.7296 14.6257H55.187C55.0828 14.6257 54.989 14.5423 54.989 14.4485L55.0098 2.86829C55.0098 2.77448 55.0932 2.6911 55.187 2.6911H57.4072C57.501 2.6911 57.5843 2.77448 57.5843 2.86829V6.79784C57.5843 6.79784 58.439 6.24541 59.6898 6.24541L59.6794 6.22456C60.9302 6.22456 62.7751 6.6936 62.7751 10.2688V10.2688ZM53.6861 6.50599H51.4972C51.3825 6.50599 51.32 6.58937 51.32 6.70403V12.3742C51.32 12.3742 50.7467 12.7808 49.965 12.7808C49.1832 12.7808 48.9539 12.4264 48.9539 11.6446V6.6936C48.9539 6.5998 48.8706 6.51641 48.7767 6.51641H46.5462C46.4524 6.51641 46.369 6.5998 46.369 6.6936V12.0199C46.369 14.313 47.651 14.8862 49.4126 14.8862C50.8614 14.8862 52.0392 14.0837 52.0392 14.0837C52.0392 14.0837 52.0913 14.4902 52.1226 14.5527C52.1434 14.6048 52.2164 14.6465 52.2894 14.6465H53.6861C53.8007 14.6465 53.8633 14.5631 53.8633 14.4693L53.8841 6.68318C53.8841 6.58937 53.8007 6.50599 53.6861 6.50599V6.50599ZM28.9831 6.49556H26.763C26.6691 6.49556 26.5858 6.58937 26.5858 6.70403V14.3547C26.5858 14.5631 26.7213 14.6361 26.8985 14.6361H28.8997C29.1082 14.6361 29.1603 14.5423 29.1603 14.3547V6.67276C29.1603 6.57895 29.0769 6.49556 28.9831 6.49556V6.49556ZM27.8887 2.97252C27.0861 2.97252 26.4503 3.60834 26.4503 4.41092C26.4503 5.21351 27.0861 5.84933 27.8887 5.84933C28.6704 5.84933 29.3062 5.21351 29.3062 4.41092C29.3062 3.60834 28.6704 2.97252 27.8887 2.97252ZM45.0765 2.71194H42.8772C42.7834 2.71194 42.7 2.79533 42.7 2.88914V7.15222H39.2499V2.88914C39.2499 2.79533 39.1666 2.71194 39.0727 2.71194H36.8526C36.7588 2.71194 36.6754 2.79533 36.6754 2.88914V14.4693C36.6754 14.5631 36.7692 14.6465 36.8526 14.6465H39.0727C39.1666 14.6465 39.2499 14.5631 39.2499 14.4693V9.51829H42.7L42.6792 14.4693C42.6792 14.5631 42.7626 14.6465 42.8564 14.6465H45.0765C45.1703 14.6465 45.2537 14.5631 45.2537 14.4693V2.88914C45.2537 2.79533 45.1703 2.71194 45.0765 2.71194V2.71194ZM25.4079 7.84016V13.8231C25.4079 13.8648 25.3975 13.9377 25.3454 13.9586C25.3454 13.9586 24.0425 14.8862 21.8953 14.8862C19.2999 14.8862 16.2251 14.0732 16.2251 8.7157C16.2251 3.35818 18.9143 2.25332 21.5409 2.26374C23.8132 2.26374 24.7304 2.77448 24.8764 2.86829C24.918 2.92041 24.9389 2.9621 24.9389 3.01421L24.5011 4.86954C24.5011 4.96335 24.4073 5.07801 24.2927 5.04674C23.9174 4.93208 23.3546 4.70277 22.0308 4.70277C20.4986 4.70277 18.8517 5.14055 18.8517 8.59063C18.8517 12.0407 20.4152 12.4472 21.5409 12.4472C22.4999 12.4472 22.8438 12.3326 22.8438 12.3326V9.93522H21.3116C21.197 9.93522 21.1136 9.85183 21.1136 9.75802V7.84016C21.1136 7.74635 21.197 7.66296 21.3116 7.66296H25.2099C25.3245 7.66296 25.4079 7.74635 25.4079 7.84016Z" fill="black"/>
<path d="M6.43844 1.94995C2.88305 1.94995 0 4.90543 0 8.55134C0 11.468 1.84481 13.9425 4.403 14.8154C4.72477 14.8765 4.8429 14.6722 4.8429 14.4978C4.8429 14.3404 4.83693 13.8204 4.83416 13.2688C3.04298 13.6681 2.66502 12.4899 2.66502 12.4899C2.37214 11.7269 1.95015 11.524 1.95015 11.524C1.36599 11.1143 1.99418 11.1227 1.99418 11.1227C2.64071 11.1692 2.98114 11.803 2.98114 11.803C3.55539 12.8122 4.48733 12.5204 4.85474 12.3517C4.91253 11.9251 5.07938 11.6338 5.26351 11.469C3.83345 11.3021 2.33013 10.736 2.33013 8.20656C2.33013 7.48584 2.58165 6.89695 2.99351 6.43465C2.92666 6.26838 2.70628 5.59696 3.05588 4.68767C3.05588 4.68767 3.59654 4.51025 4.82691 5.36434C5.34049 5.21807 5.89128 5.14472 6.43844 5.1422C6.9856 5.14472 7.53682 5.21807 8.05136 5.36434C9.28024 4.51025 9.82015 4.68767 9.82015 4.68767C10.1706 5.59696 9.95011 6.26838 9.88327 6.43465C10.2961 6.89695 10.5459 7.48584 10.5459 8.20656C10.5459 10.742 9.0397 11.3003 7.60601 11.4637C7.83695 11.6686 8.04272 12.0703 8.04272 12.6862C8.04272 13.5695 8.03526 14.2804 8.03526 14.4978C8.03526 14.6735 8.15115 14.8793 8.47751 14.8145C11.0343 13.9406 12.8768 11.467 12.8768 8.55134C12.8768 4.90543 9.99415 1.94995 6.43844 1.94995" fill="#161514"/>
<path d="M2.45775 11.3828C2.4436 11.4153 2.39337 11.425 2.34761 11.4027C2.301 11.3814 2.27482 11.3371 2.28993 11.3046C2.30376 11.2711 2.3541 11.2618 2.40061 11.2842C2.44732 11.3055 2.47393 11.3502 2.45775 11.3828Z" fill="#161514"/>
<path d="M2.71806 11.6781C2.68741 11.707 2.62749 11.6936 2.58684 11.6479C2.54481 11.6023 2.53693 11.5414 2.568 11.512C2.59961 11.4831 2.65772 11.4967 2.69986 11.5422C2.74189 11.5884 2.75009 11.6489 2.71806 11.6781Z" fill="#161514"/>
<path d="M2.97144 12.0545C2.93207 12.0824 2.86768 12.0563 2.82788 11.9981C2.78851 11.94 2.78851 11.8703 2.82873 11.8424C2.86864 11.8145 2.93207 11.8396 2.9724 11.8973C3.01167 11.9564 3.01167 12.0261 2.97144 12.0545Z" fill="#161514"/>
<path d="M3.31858 12.4182C3.28336 12.4577 3.20833 12.4471 3.15342 12.3932C3.09723 12.3405 3.08159 12.2657 3.11692 12.2262C3.15257 12.1866 3.22802 12.1977 3.28336 12.2512C3.33912 12.3038 3.35615 12.3791 3.31858 12.4182Z" fill="#161514"/>
<path d="M3.79747 12.6294C3.78193 12.6806 3.70967 12.7039 3.63688 12.6821C3.5642 12.6597 3.51663 12.5997 3.53132 12.548C3.54643 12.4965 3.61901 12.4722 3.69233 12.4955C3.76491 12.5178 3.81258 12.5773 3.79747 12.6294Z" fill="#161514"/>
<path d="M4.3234 12.6686C4.32521 12.7225 4.26348 12.7672 4.18707 12.7681C4.11024 12.7699 4.04809 12.7263 4.04724 12.6732C4.04724 12.6188 4.10758 12.5745 4.18441 12.5732C4.26082 12.5717 4.3234 12.615 4.3234 12.6686Z" fill="#161514"/>
<path d="M4.81282 12.5838C4.82197 12.6364 4.76887 12.6904 4.69299 12.7048C4.61839 12.7187 4.54933 12.6862 4.53985 12.634C4.5306 12.5801 4.58466 12.5261 4.65915 12.5122C4.73513 12.4987 4.80314 12.5303 4.81282 12.5838Z" fill="#161514"/>
</svg>
