<svg width="27" height="28" viewBox="0 0 27 28" fill="none" xmlns="http://www.w3.org/2000/svg">
<path d="M21.4702 7.10352L20.018 23.372L13.4903 25.1817L6.98046 23.3746L5.52979 7.10352H21.4702Z" fill="#E44D26"/>
<path d="M13.4995 23.7986L18.7743 22.3363L20.0153 8.43408H13.4995V23.7986Z" fill="#F16529"/>
<path d="M13.5001 12.4253H10.677L10.8594 14.4688H13.5001V16.4643H9.03434L8.49609 10.4297H13.5001V12.4253Z" fill="#EBEBEB"/>
<path d="M9.12355 17.4622H11.1268L11.2689 19.0537L13.4914 19.6539L13.5001 19.6515V21.7278L13.4909 21.7303L9.40313 20.5955L9.12355 17.4622Z" fill="#EBEBEB"/>
<path d="M8.02678 2.68188H7.0127V5.71605H8.02682V4.70003H8.95451V5.71605H9.96863V2.68188H8.95446V3.68384H8.02678V2.68188Z" fill="black"/>
<path d="M10.4094 3.68806H11.3022L11.3023 5.71605H12.3164V3.68806H13.2096V2.68188H10.4094V3.68806Z" fill="black"/>
<path d="M13.6541 2.68188H14.7115L15.362 3.748L16.0118 2.68188H17.0697V5.71605H16.0597V4.21215L15.362 5.29096H15.3445L14.6463 4.21215V5.71605H13.6541V2.68188Z" fill="black"/>
<path d="M18.5888 2.68188H17.5744V5.71605H20.015V4.71313H18.5888V2.68188Z" fill="black"/>
<path d="M13.4932 12.4253V10.4297H18.4921L18.3134 12.4253H13.4932Z" fill="white"/>
<path d="M15.9505 16.4644H13.4932V14.4688H18.1319L18.0832 15.0047L17.5842 20.5955L13.4932 21.7294V19.6532L15.7189 19.0525L15.9505 16.4644Z" fill="white"/>
</svg>
