<svg width="37" height="37" viewBox="0 0 37 37" fill="none" xmlns="http://www.w3.org/2000/svg">
<rect x="4.625" y="4.625" width="27.75" height="27.75" fill="#FFCA28"/>
<path d="M21.4727 27.7048L23.5159 26.3529C23.676 26.8559 24.6899 28.0506 25.9707 28.0506C27.2514 28.0506 27.8461 27.3511 27.8461 26.8874C27.8461 25.6235 26.5383 25.1779 25.9101 24.9639C25.8077 24.929 25.7234 24.9003 25.6657 24.8752C25.6362 24.8623 25.5914 24.8452 25.534 24.8233C24.8354 24.5564 22.258 23.5716 22.258 20.7172C22.258 17.5732 25.2922 17.2117 25.9783 17.2117C26.4272 17.2117 28.5856 17.2667 29.6605 19.2867L27.6784 20.6701C27.2438 19.7898 26.5218 19.4989 26.0774 19.4989C24.9796 19.4989 24.7509 20.3038 24.7509 20.6701C24.7509 21.698 25.9436 22.1588 26.9507 22.5478C27.2142 22.6496 27.465 22.7465 27.6784 22.8473C28.7762 23.3661 30.3924 24.2149 30.3924 26.8874C30.3924 28.2259 29.2697 30.3929 26.4433 30.3929C22.6468 30.3929 21.6404 28.1135 21.4727 27.7048Z" fill="#3E3E3E"/>
<path d="M11.562 27.9733L13.6915 26.622C13.8584 27.1248 14.5067 28.0518 15.4475 28.0518C16.3883 28.0518 16.8698 27.0855 16.8698 26.622V17.509H19.4888V26.622C19.5312 27.879 18.8341 30.3929 15.7574 30.3929C12.9287 30.3929 11.7527 28.7117 11.562 27.9733Z" fill="#3E3E3E"/>
</svg>
