<svg width="53" height="27" viewBox="0 0 53 27" fill="none" xmlns="http://www.w3.org/2000/svg">
<path d="M47.748 4.5H39.0801C39.0801 5.53775 39.4923 6.53299 40.2261 7.26679C40.9599 8.00058 41.9552 8.41283 42.9929 8.41283H44.5896V9.95439C44.591 12.1134 46.3409 13.8633 48.4999 13.8647V5.25198C48.4999 4.83667 48.1633 4.5 47.748 4.5Z" fill="#2684FF"/>
<path d="M43.4594 8.81885H34.7915C34.7929 10.9779 36.5428 12.7278 38.7018 12.7292H40.2985V14.2757C40.3013 16.4348 42.0523 18.1836 44.2114 18.1836V9.57083C44.2114 9.15552 43.8747 8.81885 43.4594 8.81885Z" fill="url(#paint0_linear_430_503)"/>
<path d="M39.1679 13.1353H30.5C30.5 15.2962 32.2518 17.0481 34.4128 17.0481H36.0146V18.5896C36.0159 20.7467 37.7628 22.4958 39.9199 22.5V13.8872C39.9199 13.4719 39.5832 13.1353 39.1679 13.1353Z" fill="url(#paint1_linear_430_503)"/>
<path d="M6.59327 8.33171V15.1189C6.59327 16.0608 6.32086 16.7949 5.77604 17.3213C5.23122 17.8384 4.50171 18.097 3.58752 18.097C2.66409 18.097 1.91611 17.8292 1.34359 17.2936C0.780296 16.758 0.498651 16.01 0.498651 15.0496H2.43785C2.44708 15.4652 2.54404 15.7884 2.72873 16.0192C2.92265 16.2501 3.19968 16.3655 3.55981 16.3655C3.91072 16.3655 4.17851 16.2547 4.3632 16.0331C4.54788 15.8115 4.64022 15.5067 4.64022 15.1189V8.33171H6.59327ZM9.83883 9.41212C9.49717 9.41212 9.2109 9.30593 8.98005 9.09354C8.75842 8.87192 8.64761 8.59951 8.64761 8.27631C8.64761 7.95311 8.75842 7.68531 8.98005 7.47292C9.2109 7.2513 9.49717 7.14049 9.83883 7.14049C10.1805 7.14049 10.4621 7.2513 10.6838 7.47292C10.9146 7.68531 11.0301 7.95311 11.0301 8.27631C11.0301 8.59951 10.9146 8.87192 10.6838 9.09354C10.4621 9.30593 10.1805 9.41212 9.83883 9.41212ZM10.7946 10.3263V18H8.85538V10.3263H10.7946ZM14.6497 11.5175C14.899 11.1112 15.2222 10.7926 15.6193 10.5618C16.0256 10.3309 16.4873 10.2155 17.0045 10.2155V12.2517H16.4919C15.8825 12.2517 15.4208 12.3948 15.1068 12.6811C14.8021 12.9673 14.6497 13.466 14.6497 14.177V18H12.7105V10.3263H14.6497V11.5175ZM17.8119 14.1355C17.8119 13.3598 17.9643 12.6718 18.269 12.0716C18.583 11.4714 19.0032 11.0097 19.5295 10.6865C20.0651 10.3633 20.6607 10.2017 21.3164 10.2017C21.8889 10.2017 22.3875 10.3171 22.8123 10.5479C23.2463 10.7788 23.5926 11.0697 23.8512 11.4206V10.3263H25.8042V18H23.8512V16.878C23.6018 17.2382 23.2556 17.5383 22.8123 17.7784C22.3783 18.0092 21.875 18.1247 21.3025 18.1247C20.6561 18.1247 20.0651 17.9584 19.5295 17.626C19.0032 17.2936 18.583 16.8272 18.269 16.227C17.9643 15.6176 17.8119 14.9204 17.8119 14.1355ZM23.8512 14.1632C23.8512 13.6922 23.7588 13.2905 23.5741 12.9581C23.3894 12.6164 23.1401 12.3579 22.8262 12.1824C22.5122 11.9977 22.1751 11.9054 21.815 11.9054C21.4549 11.9054 21.1224 11.9931 20.8177 12.1686C20.513 12.344 20.2636 12.6026 20.0697 12.9442C19.885 13.2767 19.7927 13.6737 19.7927 14.1355C19.7927 14.5972 19.885 15.0035 20.0697 15.3544C20.2636 15.696 20.513 15.9592 20.8177 16.1439C21.1317 16.3286 21.4641 16.4209 21.815 16.4209C22.1751 16.4209 22.5122 16.3332 22.8262 16.1578C23.1401 15.9731 23.3894 15.7145 23.5741 15.3821C23.7588 15.0404 23.8512 14.6341 23.8512 14.1632Z" fill="#393737"/>
<defs>
<linearGradient id="paint0_linear_430_503" x1="42.1134" y1="7.00107" x2="38.4486" y2="10.8251" gradientUnits="userSpaceOnUse">
<stop offset="0.18" stop-color="#0052CC"/>
<stop offset="1" stop-color="#2684FF"/>
</linearGradient>
<linearGradient id="paint1_linear_430_503" x1="304.846" y1="258.624" x2="147.399" y2="414.441" gradientUnits="userSpaceOnUse">
<stop offset="0.18" stop-color="#0052CC"/>
<stop offset="1" stop-color="#2684FF"/>
</linearGradient>
</defs>
</svg>
