<svg width="28" height="28" viewBox="0 0 28 28" fill="none" xmlns="http://www.w3.org/2000/svg">
<rect x="4.26123" y="3.67041" width="20.25" height="20.25" fill="#FFCA28"/>
<path d="M16.5554 20.5124L18.0463 19.5258C18.1631 19.8929 18.9031 20.7647 19.8377 20.7647C20.7723 20.7647 21.2062 20.2543 21.2062 19.9159C21.2062 18.9936 20.2519 18.6685 19.7935 18.5123C19.7188 18.4868 19.6572 18.4659 19.6151 18.4475C19.5936 18.4381 19.5609 18.4257 19.519 18.4096C19.0092 18.2149 17.1284 17.4963 17.1284 15.4133C17.1284 13.1191 19.3425 12.8552 19.8432 12.8552C20.1708 12.8552 21.7458 12.8954 22.5302 14.3694L21.0838 15.3789C20.7667 14.7365 20.2399 14.5243 19.9156 14.5243C19.1145 14.5243 18.9476 15.1116 18.9476 15.3789C18.9476 16.1291 19.8179 16.4653 20.5528 16.7492C20.7451 16.8234 20.9281 16.8941 21.0838 16.9677C21.8849 17.3463 23.0643 17.9657 23.0643 19.9159C23.0643 20.8926 22.245 22.474 20.1826 22.474C17.4121 22.474 16.6778 20.8106 16.5554 20.5124Z" fill="#3E3E3E"/>
<path d="M9.32324 20.7083L10.8772 19.7222C10.999 20.0891 11.4721 20.7656 12.1586 20.7656C12.8451 20.7656 13.1965 20.0605 13.1965 19.7222V13.0722H15.1077V19.7222C15.1386 20.6395 14.6299 22.474 12.3848 22.474C10.3206 22.474 9.4624 21.2472 9.32324 20.7083Z" fill="#3E3E3E"/>
</svg>
