<svg width="63" height="17" viewBox="0 0 63 17" fill="none" xmlns="http://www.w3.org/2000/svg">
<path d="M21.1913 6.95659C21.1913 5.94618 20.2088 4.87305 18.5085 4.87305C16.5992 4.87305 14.5017 6.27369 14.1811 9.068C13.8536 11.8902 15.6097 13.1445 17.3796 13.1445C19.1496 13.1445 20.0764 12.4546 21.0241 11.5348C20.2088 10.5105 19.1566 10.9843 18.9545 11.0888C18.7315 11.2003 18.4458 11.3536 17.8604 11.3536C17.1775 11.3536 16.4807 11.047 16.4807 9.7718C20.8568 9.33977 21.1913 7.967 21.1913 6.95659ZM19.0242 7.12383C18.9963 7.43741 18.8709 7.97397 16.6549 8.27361C17.1218 6.61514 18.0137 6.48971 18.4249 6.48971C18.8081 6.48971 19.052 6.78935 19.0242 7.12383ZM11.6098 7.3956C11.6098 7.3956 10.6691 10.3502 10.5924 10.5941C10.5646 10.3432 9.8747 5.04029 9.8747 5.04029C8.27198 5.04029 7.41488 6.1831 6.96193 7.38863C6.96193 7.38863 5.81912 10.3502 5.72156 10.601C5.7146 10.3711 5.54736 7.42347 5.54736 7.42347C5.4498 5.94618 4.09794 5.04726 3.00391 5.04726L4.32789 13.0818C6.00727 13.0748 6.91315 11.939 7.387 10.7334C7.387 10.7334 8.39741 8.12031 8.43922 8.00184C8.44619 8.11334 9.16393 13.0818 9.16393 13.0818C10.8503 13.0818 11.7562 12.0156 12.2439 10.8519L14.6062 5.04726C12.9408 5.04726 12.0628 6.1831 11.6098 7.3956ZM27.3792 4.85912C26.3409 4.85912 25.5465 5.42355 24.8776 6.25279V6.24582L25.4769 1.41675C24.0971 1.41675 22.9752 2.6153 22.7592 4.3992L21.7139 13.0191C22.5083 13.0191 23.3515 12.7891 23.8044 12.2038C24.2086 12.7264 24.8149 13.1445 25.7138 13.1445C28.0412 13.1445 29.637 10.4408 29.637 7.90429C29.623 5.59079 28.5011 4.85912 27.3792 4.85912ZM27.1632 9.00529C26.9193 10.4199 26.1319 11.3815 25.3723 11.3815C24.6058 11.3815 24.2783 11.04 24.2783 11.04C24.4246 9.79968 24.5152 9.04013 24.794 8.3851C25.0727 7.73008 25.7347 6.68482 26.4245 6.68482C27.1005 6.68482 27.4071 7.58374 27.1632 9.00529ZM35.4486 5.04726H33.8249L33.8319 4.96364C33.9434 3.90445 34.1943 3.34698 35.0235 3.25639C35.5879 3.20065 35.8388 2.90798 35.9015 2.58743C35.9503 2.33657 36.1036 1.46553 36.1036 1.46553C32.8424 1.44462 31.8181 2.85223 31.5533 4.99848L31.5463 5.04726H31.5114C30.9819 5.04726 30.3965 5.64654 30.299 6.40609L30.2641 6.68482H31.3512L30.4383 14.2246L30.1596 15.5764C30.1944 15.5764 30.2362 15.5834 30.2711 15.5834C31.7971 15.5277 32.7727 14.3221 32.9887 12.5731L33.6995 6.68482H34.2082C34.7099 6.68482 35.2953 6.1831 35.3998 5.3469L35.4486 5.04726ZM43.8942 4.90789C42.0197 4.90789 40.2498 6.28763 39.7062 8.45479C39.1627 10.6219 39.985 13.1863 42.7444 13.1863C45.4969 13.1863 47.0857 10.5174 47.0857 8.29451C47.0857 6.08555 45.5875 4.90789 43.8942 4.90789ZM44.6538 8.9356C44.5562 9.91814 44.1242 11.4094 42.9396 11.4094C41.748 11.4094 41.9152 9.66728 42.0337 8.83805C42.1591 7.95306 42.6538 6.69179 43.72 6.69179C44.6747 6.69179 44.7653 7.82763 44.6538 8.9356ZM56.3467 7.3956C56.3467 7.3956 55.4059 10.3502 55.3293 10.5941C55.3014 10.3432 54.6115 5.04029 54.6115 5.04029C53.0088 5.04029 52.1517 6.1831 51.6988 7.38863C51.6988 7.38863 50.556 10.3502 50.4584 10.601C50.4514 10.3711 50.2842 7.42347 50.2842 7.42347C50.1866 5.94618 48.8348 5.04726 47.7407 5.04726L49.0578 13.0818C50.7371 13.0748 51.643 11.939 52.1169 10.7334C52.1169 10.7334 53.1273 8.12031 53.1621 8.00184C53.1691 8.11334 53.8868 13.0818 53.8868 13.0818C55.5732 13.0818 56.4791 12.0156 56.9668 10.8519L59.3291 5.04726C57.6707 5.04726 56.7926 6.1831 56.3467 7.3956ZM36.9816 1.46553L35.6158 12.4825L35.3371 13.8413C35.3719 13.8413 35.4137 13.8483 35.4486 13.8483C36.9189 13.8274 37.9641 12.5382 38.1593 10.9146L38.9467 4.59432C39.1836 2.66408 38.0338 1.46553 36.9816 1.46553Z" fill="#4353FF"/>
</svg>
